<?xml version="1.0" encoding="UTF-8"?><svg id="Layer_2" xmlns="http://www.w3.org/2000/svg" viewBox="0 0 324.944451 51.303977"><defs><style>.cls-1{fill:#010101;opacity:.32;}.cls-1,.cls-2{stroke-width:0px;}.cls-2{fill:#fff;}</style></defs><g id="Layer_1-2"><path class="cls-1" d="m261.096719,1.976506H0v47.350966l261.096719-.091402c19.341277,0,28.691738-4.243344,28.691738-23.58462s-9.350461-23.674944-28.691738-23.674944Zm13.733913,30.219449c-3.674122,0-6.652555-2.978433-6.652555-6.652478,0-3.674122,2.978433-6.652555,6.652555-6.652555,3.674045,0,6.652478,2.978433,6.652478,6.652555,0,3.674045-2.978433,6.652478-6.652478,6.652478Z"/><path class="cls-2" d="m18.707189,37.873405l2.608398-.851562c.851562,1.80957,2.554688,2.820312,5.481445,2.820312,3.006836,0,5.535156-1.436523,5.535156-5.561523v-1.277344h-.080078c-1.330078,1.96875-3.698242,2.820312-6.200195,2.820312-4.976562,0-8.196289-3.40625-8.196289-7.556641,0-4.444336,3.566406-7.584961,8.143555-7.584961,2.740234,0,5.082031,1.144531,6.333008,2.980469h.053711v-2.554688h2.820312v13.092773c0,6.014648-3.751953,7.957031-8.382812,7.957031-3.485352,0-6.678711-.984375-8.116211-4.28418Zm7.824219-4.577148c3.246094,0,5.854492-2.235352,5.854492-5.083008,0-2.874023-2.608398-5.00293-5.854492-5.00293-3.273438,0-5.668945,2.208984-5.668945,5.00293,0,2.847656,2.421875,5.083008,5.668945,5.083008Z"/><path class="cls-2" d="m37.862462,28.558951c0-4.577148,3.672852-7.876953,8.728516-7.876953,3.672852,0,8.223633,1.942383,8.223633,7.611328v.87793h-14.024414c.186523,2.954102,2.6875,4.736328,5.960938,4.736328,2.713867,0,4.683594-1.277344,5.615234-3.113281l2.633789.984375c-1.277344,2.741211-4.390625,4.550781-8.249023,4.550781-5.083008,0-8.888672-3.113281-8.888672-7.770508Zm13.998047-1.383789c-.160156-3.060547-2.847656-4.151367-5.295898-4.151367-3.060547,0-5.135742,1.703125-5.641602,4.151367h10.9375Z"/><path class="cls-2" d="m58.588048,31.32653v-7.770508h-3.512695v-2.448242h3.512695v-4.28418h2.847656v4.28418h5.242188v2.448242h-5.242188v6.866211c0,1.542969,0,3.458984,2.500977,3.458984.772461,0,1.756836-.212891,2.741211-.665039v2.474609c-.904297.425781-2.128906.638672-3.273438.638672-4.816406,0-4.816406-3.378906-4.816406-5.00293Z"/><path class="cls-2" d="m77.078283,14.321647c1.144531,0,2.048828.851562,2.048828,1.836914,0,1.09082-.904297,1.916016-2.048828,1.916016-1.197266,0-2.102539-.825195-2.102539-1.916016,0-.985352.905273-1.836914,2.102539-1.836914Zm-1.463867,6.786133h2.874023v14.769531h-2.874023v-14.769531Z"/><path class="cls-2" d="m82.425939,21.10778h2.820312v2.52832h.053711c1.357422-2.048828,3.592773-2.954102,6.013672-2.954102,3.166992,0,6.360352,1.650391,6.360352,5.908203v9.287109h-2.874023v-8.089844c0-2.874023-1.755859-4.550781-4.364258-4.550781-3.166992,0-5.135742,1.996094-5.135742,4.709961v7.930664h-2.874023v-14.769531Z"/><path class="cls-2" d="m98.840978,21.10778h3.140625c1.862305,3.938477,3.486328,7.584961,5.295898,11.576172h.079102c1.783203-3.964844,3.486328-7.744141,5.295898-11.576172h3.03418l-6.759766,14.769531h-3.299805l-6.786133-14.769531Z"/><path class="cls-2" d="m115.841954,28.532584c0-4.603516,3.699219-7.850586,8.967773-7.850586,5.21582,0,8.915039,3.24707,8.915039,7.850586s-3.699219,7.796875-8.915039,7.796875c-5.268555,0-8.967773-3.193359-8.967773-7.796875Zm8.967773,5.269531c3.486328,0,5.880859-2.182617,5.880859-5.269531,0-3.113281-2.394531-5.295898-5.880859-5.295898-3.512695,0-5.93457,2.182617-5.93457,5.295898,0,3.086914,2.421875,5.269531,5.93457,5.269531Z"/><path class="cls-2" d="m136.381017,14.588248h2.874023v21.289062h-2.874023V14.588248Z"/><path class="cls-2" d="m140.957189,21.10778h3.139648c1.863281,3.938477,3.486328,7.584961,5.295898,11.576172h.080078c1.783203-3.964844,3.486328-7.744141,5.295898-11.576172h3.033203l-6.758789,14.769531h-3.299805l-6.786133-14.769531Z"/><path class="cls-2" d="m157.958165,28.558951c0-4.577148,3.671875-7.876953,8.728516-7.876953,3.671875,0,8.222656,1.942383,8.222656,7.611328v.87793h-14.024414c.186523,2.954102,2.688477,4.736328,5.960938,4.736328,2.714844,0,4.683594-1.277344,5.615234-3.113281l2.634766.984375c-1.277344,2.741211-4.390625,4.550781-8.25,4.550781-5.082031,0-8.887695-3.113281-8.887695-7.770508Zm13.99707-1.383789c-.15918-3.060547-2.84668-4.151367-5.294922-4.151367-3.060547,0-5.136719,1.703125-5.641602,4.151367h10.936523Z"/><path class="cls-2" d="m176.422033,28.506217c0-4.790039,3.645508-7.824219,8.169922-7.824219,2.740234,0,4.975586,1.118164,6.226562,2.927734h.080078v-9.021484h2.874023v16.685547c0,2.394531.212891,3.458984.558594,4.603516h-2.847656c-.319336-.984375-.425781-1.623047-.425781-2.448242h-.079102c-1.357422,1.96875-3.779297,2.900391-6.386719,2.900391-4.790039,0-8.169922-3.273438-8.169922-7.823242Zm8.674805,5.268555c3.24707,0,5.854492-2.181641,5.854492-5.294922,0-3.114258-2.607422-5.269531-5.854492-5.269531-3.272461,0-5.667969,2.235352-5.667969,5.295898,0,3.033203,2.421875,5.268555,5.667969,5.268555Z"/><path class="cls-2" d="m257.566355,51.303977H0V0h257.566355C276.521274,0,291.9408,6.696544,291.9408,25.651463s-15.419526,25.652514-34.374445,25.652514ZM2.152344,49.151634h255.414011c17.767346,0,32.222101-5.731773,32.222101-23.50017s-14.454755-23.499119-32.222101-23.499119H2.152344v46.99929Zm272.788303-17.004254c-3.640488,0-6.602063-2.962626-6.602063-6.603114s2.961575-6.603114,6.602063-6.603114c3.64259,0,6.604164,2.962626,6.604164,6.603114s-2.961575,6.603114-6.604164,6.603114Zm0-11.053883c-2.452915,0-4.449719,1.996803-4.449719,4.45077s1.996803,4.45077,4.449719,4.45077c2.455017,0,4.451821-1.996803,4.451821-4.45077s-1.996803-4.45077-4.451821-4.45077Z"/><rect class="cls-2" x="260.233664" y="1.076172" width="2.152344" height="48.93724"/><rect class="cls-2" x="290.864628" y="24.575291" width="34.079823" height="2.152344"/></g></svg>