<?xml version="1.0" encoding="UTF-8"?><svg id="Layer_2" xmlns="http://www.w3.org/2000/svg" viewBox="0 0 525.900024 230.885533"><defs><style>.cls-1{fill:#fff;stroke-width:0px;}</style></defs><g id="Layer_1-2"><path class="cls-1" d="m321.552435,230.885533H0V0h321.552435c63.648378,0,115.442775,51.794396,115.442775,115.442767s-51.794396,115.442767-115.442775,115.442767ZM7.208498,223.677035h314.343937c59.69704,0,108.234276-48.53722,108.234276-108.234268S381.249475,7.208498,321.552435,7.208498H7.208498v216.468536Zm372.70607-86.395183c-12.227762,0-22.159458-9.931712-22.159458-22.159458s9.931696-22.159458,22.159458-22.159458,22.159458,9.931712,22.159458,22.159458c0,12.174346-9.931696,22.159458-22.159458,22.159458Zm0-37.163818c-8.223041,0-14.95096,6.727935-14.95096,14.95096s6.727919,14.95096,14.95096,14.95096,14.95096-6.727935,14.95096-14.95096-6.727919-14.95096-14.95096-14.95096Z"/><path class="cls-1" d="m330.523004,3.630947h7.208498v222.982883h-7.208498V3.630947Z"/><path class="cls-1" d="m433.417652,111.865217h92.482372v7.208498h-92.482372v-7.208498Z"/><path class="cls-1" d="m26.965124,30.969845h20.771156c9.611331,0,14.95096,4.431893,14.95096,10.572466,0,4.004721-2.563023,8.009443-7.849252,9.290954v.106791c5.339629.961135,9.611331,3.630949,9.611331,9.718126,0,9.34435-9.824917,11.266619-16.980016,11.266619h-20.504178V30.969845Zm17.67417,16.232471c3.630949,0,7.956047-.266981,7.956047-3.844531,0-3.417363-4.378494-3.791135-7.849252-3.791135h-8.116238v7.63567s8.009443,0,8.009443-.000004Zm.85434,16.125676c3.577549,0,8.596801-.266981,8.596801-4.058117,0-3.684344-4.965856-4.058117-8.383215-4.058117h-9.077368v8.116234h8.863783Z"/><path class="cls-1" d="m71.871403,30.969845h32.197962v8.596801h-22.533231v7.101708h21.251723v9.077368h-21.251723v7.582271h23.173984v8.596801h-32.838715V30.969845Z"/><path class="cls-1" d="m124.947307,58.255346c-5.126047-8.116234-16.81983-26.698143-17.193602-27.285501h10.358876c3.89793,5.980382,7.689062,11.960769,11.533601,17.941151h.106791c3.89793-5.980382,7.742461-11.960769,11.533601-17.941151h10.358876c-5.713409,9.077368-11.373402,18.154737-17.086811,27.17871v13.829639h-9.611331v-13.722848Z"/><path class="cls-1" d="m151.111487,51.527415c0-12.708317,11.15982-21.358514,24.882672-21.358514,13.829635,0,24.882672,8.756992,24.882672,21.358514,0,12.494732-11.053038,21.305114-24.882672,21.305114-13.669452,0-24.882672-8.596797-24.882672-21.305114Zm24.936072,12.548127c8.329824,0,14.630579-5.339629,14.630579-12.548127,0-6.994913-6.140573-12.601522-14.630579-12.601522-8.276424,0-14.790777,5.286233-14.790777,12.601522,0,7.47548,6.621136,12.548127,14.790777,12.548127Z"/><path class="cls-1" d="m208.352311,30.969845h10.038495c6.941517,7.849252,14.310198,15.912095,21.305114,24.348705h.160182v-24.348705h9.611331v40.954949h-9.985112c-7.101699-7.956047-14.256815-15.431527-21.305114-23.814742h-.160182v23.814742h-9.664731V30.969845h.000016Z"/><path class="cls-1" d="m259.612744,30.969845h19.06248c16.392666,0,23.334183,9.130764,23.334183,20.237193,0,12.174351-8.436607,20.717756-22.746804,20.717756h-19.649826l-.000033-40.954949h0Zm18.475102,32.358148c6.834718,0,13.776235-1.655284,13.776235-11.693787,0-12.014164-9.397733-12.014164-15.591722-12.014164h-6.994917v23.761347h8.810403v-.053395Z"/><path class="cls-1" d="m26.965124,102.574267v-8.596805h38.925893v8.596805h-14.630583v32.358152h-9.611331v-32.358152h-14.683978Z"/><path class="cls-1" d="m71.711212,93.977462h9.664731v16.285867h21.572104v-16.285867h9.718114v40.954949h-9.664731v-15.591714h-21.572096v15.591714h-9.664731l-.053391-40.954949Z"/><path class="cls-1" d="m122.758056,93.977462h32.197953v8.596805h-22.533223v7.101708h21.251715v9.077368h-21.251715v7.582271h23.173984v8.596805h-32.838715v-40.954957Z"/><path class="cls-1" d="m26.965124,156.931678h9.664727v32.358152h21.358514v8.596805h-31.023241v-40.954957Z"/><path class="cls-1" d="m77.958576,156.931678h11.266619l18.581909,40.954941h-10.252085l-4.592084-9.34435h-19.062472l-4.592084,9.34435h-10.038503l18.6887-40.954941Zm10.786048,22.533239c-1.708679-3.630941-3.417359-7.368681-5.126047-11.266619h-.16019c-1.708679,3.897922-3.417359,7.635662-5.126047,11.266619h10.412284Z"/><path class="cls-1" d="m112.933143,156.931678h20.71776c9.611323,0,14.950952,4.431885,14.950952,10.572458,0,4.004721-2.563015,8.009443-7.795861,9.29095v.106799c5.339629.961127,9.611331,3.630941,9.611331,9.71813,0,9.34435-9.824913,11.266619-16.98002,11.266619h-20.55757l.053408-40.954957Zm17.674174,16.232467c3.630949,0,7.956043-.266981,7.956043-3.844539,0-3.417359-4.378494-3.791139-7.849252-3.791139h-8.062842v7.635662h7.956051v.000016Zm.907735,16.125685c3.577549,0,8.596797-.266981,8.596797-4.058121,0-3.68434-4.965856-4.058121-8.383215-4.058121h-9.077368v8.116242h8.863787Z"/><path class="cls-1" d="m157.892821,156.931678h32.197953v8.596805h-22.533239v7.101699h21.251715v9.077368h-21.251715v7.582279h23.173984v8.596805h-32.838715v-40.954957h.000016Z"/><path class="cls-1" d="m198.68758,156.931678h9.664731v32.358152h21.358514v8.596805h-31.023245v-40.954957Z"/></g></svg>