<?xml version="1.0" encoding="UTF-8"?><svg id="Layer_2" xmlns="http://www.w3.org/2000/svg" viewBox="0 0 324.944451 51.303977"><defs><style>.cls-1{fill:#010101;opacity:.32;}.cls-1,.cls-2{stroke-width:0px;}.cls-2{fill:#fff;}</style></defs><g id="Layer_1-2"><path class="cls-1" d="m261.096719,1.976506H0v47.350966l261.096719-.091402c19.341277,0,28.691738-4.243344,28.691738-23.58462s-9.350461-23.674944-28.691738-23.674944Zm13.733913,30.219449c-3.674122,0-6.652555-2.978433-6.652555-6.652478,0-3.674122,2.978433-6.652555,6.652555-6.652555,3.674045,0,6.652478,2.978433,6.652478,6.652555,0,3.674045-2.978433,6.652478-6.652478,6.652478Z"/><path class="cls-2" d="m19.159337,21.107303h2.821289v2.688477h.132812c.87793-1.756836,2.954102-3.114258,5.455078-3.114258.612305,0,1.304688.080078,1.943359.292969v2.980469c-.666016-.212891-1.624023-.319336-2.182617-.319336-3.912109,0-5.295898,3.246094-5.295898,5.748047v6.493164h-2.874023v-14.769531Z"/><path class="cls-2" d="m29.269689,28.558475c0-4.577148,3.672852-7.876953,8.728516-7.876953,3.672852,0,8.223633,1.942383,8.223633,7.611328v.87793h-14.024414c.186523,2.954102,2.6875,4.736328,5.960938,4.736328,2.713867,0,4.683594-1.277344,5.615234-3.113281l2.633789.984375c-1.277344,2.741211-4.390625,4.550781-8.249023,4.550781-5.083008,0-8.888672-3.113281-8.888672-7.770508Zm13.998047-1.383789c-.160156-3.060547-2.847656-4.151367-5.295898-4.151367-3.060547,0-5.135742,1.703125-5.641602,4.151367h10.9375Z"/><path class="cls-2" d="m47.334142,32.177615l2.661133-.797852c.87793,1.755859,2.847656,2.713867,4.737305,2.713867,1.330078,0,3.485352-.504883,3.485352-2.102539,0-1.410156-1.80957-1.835938-3.326172-2.181641l-1.755859-.425781c-1.783203-.425781-4.976562-1.463867-4.976562-4.337891,0-2.820312,3.033203-4.364258,6.09375-4.364258,3.193359,0,5.641602,1.59668,6.413086,3.672852l-2.6875.851562c-.532227-1.197266-1.862305-2.289062-3.912109-2.289062-1.729492,0-3.006836.745117-3.006836,1.943359,0,1.490234,2.182617,2.048828,3.779297,2.420898l1.569336.373047c1.676758.37207,4.84375,1.117188,4.84375,4.044922,0,2.713867-2.634766,4.629883-6.493164,4.629883-3.645508,0-6.519531-1.649414-7.424805-4.151367Z"/><path class="cls-2" d="m62.446447,28.532107c0-4.603516,3.699219-7.850586,8.967773-7.850586,5.21582,0,8.915039,3.24707,8.915039,7.850586s-3.699219,7.796875-8.915039,7.796875c-5.268555,0-8.967773-3.193359-8.967773-7.796875Zm8.967773,5.269531c3.486328,0,5.880859-2.182617,5.880859-5.269531,0-3.113281-2.394531-5.295898-5.880859-5.295898-3.512695,0-5.93457,2.182617-5.93457,5.295898,0,3.086914,2.421875,5.269531,5.93457,5.269531Z"/><path class="cls-2" d="m82.746251,30.368045v-9.260742h2.874023v8.302734c0,3.060547,2.022461,4.391602,4.28418,4.391602,3.139648,0,4.896484-2.262695,4.896484-4.550781v-8.143555h2.874023v10.166016c0,2.288086.186523,3.326172.584961,4.603516h-2.900391c-.265625-.905273-.425781-1.676758-.399414-2.288086h-.052734c-1.224609,1.835938-3.273438,2.740234-5.774414,2.740234-3.379883,0-6.386719-1.729492-6.386719-5.960938Z"/><path class="cls-2" d="m101.6359,21.107303h2.820312v2.688477h.133789c.87793-1.756836,2.953125-3.114258,5.455078-3.114258.612305,0,1.303711.080078,1.942383.292969v2.980469c-.665039-.212891-1.623047-.319336-2.181641-.319336-3.912109,0-5.295898,3.246094-5.295898,5.748047v6.493164h-2.874023v-14.769531Z"/><path class="cls-2" d="m111.746251,28.532107c0-4.736328,3.751953-7.850586,8.887695-7.850586,3.353516,0,6.466797,1.4375,7.824219,4.391602l-2.714844,1.010742c-.824219-1.889648-2.820312-2.847656-5.188477-2.847656-3.512695,0-5.801758,2.262695-5.801758,5.269531,0,3.193359,2.554688,5.295898,5.987305,5.295898,2.794922,0,4.763672-1.304688,5.72168-3.300781l2.661133.985352c-1.357422,3.086914-4.577148,4.842773-8.461914,4.842773-5.136719,0-8.915039-3.060547-8.915039-7.796875Z"/><path class="cls-2" d="m129.863439,28.558475c0-4.577148,3.672852-7.876953,8.728516-7.876953,3.672852,0,8.223633,1.942383,8.223633,7.611328v.87793h-14.024414c.186523,2.954102,2.6875,4.736328,5.960938,4.736328,2.713867,0,4.683594-1.277344,5.615234-3.113281l2.633789.984375c-1.277344,2.741211-4.390625,4.550781-8.249023,4.550781-5.083008,0-8.888672-3.113281-8.888672-7.770508Zm13.998047-1.383789c-.160156-3.060547-2.847656-4.151367-5.295898-4.151367-3.060547,0-5.135742,1.703125-5.641602,4.151367h10.9375Z"/><path class="cls-2" d="m147.928869,32.177615l2.661133-.797852c.87793,1.755859,2.84668,2.713867,4.736328,2.713867,1.331055,0,3.486328-.504883,3.486328-2.102539,0-1.410156-1.80957-1.835938-3.326172-2.181641l-1.756836-.425781c-1.783203-.425781-4.976562-1.463867-4.976562-4.337891,0-2.820312,3.03418-4.364258,6.094727-4.364258,3.193359,0,5.641602,1.59668,6.413086,3.672852l-2.6875.851562c-.532227-1.197266-1.863281-2.289062-3.912109-2.289062-1.729492,0-3.006836.745117-3.006836,1.943359,0,1.490234,2.181641,2.048828,3.77832,2.420898l1.570312.373047c1.676758.37207,4.842773,1.117188,4.842773,4.044922,0,2.713867-2.633789,4.629883-6.493164,4.629883-3.645508,0-6.519531-1.649414-7.423828-4.151367Z"/><path class="cls-2" d="m257.566355,51.303977H0V0h257.566355c18.954919,0,34.374445,6.696544,34.374445,25.651463s-15.419526,25.652514-34.374445,25.652514ZM2.152344,49.151634h255.414011c17.767346,0,32.222101-5.731773,32.222101-23.50017s-14.454755-23.499119-32.222101-23.499119H2.152344v46.99929Zm272.788303-17.004254c-3.640488,0-6.602063-2.962626-6.602063-6.603114s2.961575-6.603114,6.602063-6.603114c3.64259,0,6.604164,2.962626,6.604164,6.603114s-2.961575,6.603114-6.604164,6.603114Zm0-11.053883c-2.452915,0-4.449719,1.996803-4.449719,4.45077s1.996803,4.45077,4.449719,4.45077c2.455017,0,4.451821-1.996803,4.451821-4.45077s-1.996803-4.45077-4.451821-4.45077Z"/><rect class="cls-2" x="260.233664" y="1.076172" width="2.152344" height="48.93724"/><rect class="cls-2" x="290.864628" y="24.575291" width="34.079823" height="2.152344"/></g></svg>