<?xml version="1.0" standalone="no"?>
<!DOCTYPE svg PUBLIC "-//W3C//DTD SVG 20010904//EN"
 "http://www.w3.org/TR/2001/REC-SVG-20010904/DTD/svg10.dtd">
<svg version="1.0" xmlns="http://www.w3.org/2000/svg"
 width="610.000000pt" height="610.000000pt" viewBox="0 0 610.000000 610.000000"
 preserveAspectRatio="xMidYMid meet">
<metadata>
Created by potrace 1.14, written by Peter Selinger 2001-2017
</metadata>
<g transform="translate(0.000000,610.000000) scale(0.100000,-0.100000)"
fill="#000000" stroke="none">
<path d="M4829 6088 c0 -7 -2 -20 -4 -28 -2 -8 -6 -24 -8 -35 -3 -11 -10 -40
-17 -65 -7 -25 -14 -52 -16 -60 -2 -8 -13 -49 -24 -90 -11 -41 -23 -86 -26
-99 -3 -14 -7 -28 -10 -33 -3 -5 -7 -20 -10 -33 -10 -55 -160 -490 -229 -665
-66 -169 -161 -389 -185 -432 -6 -10 -14 -26 -20 -35 -5 -10 -22 -45 -38 -78
-73 -152 -266 -482 -335 -570 -4 -5 -22 -31 -40 -57 l-33 -47 -33 29 c-18 16
-46 39 -62 52 -17 13 -40 31 -51 40 -12 10 -25 18 -29 18 -4 0 -14 7 -23 15
-19 19 -162 102 -246 142 -75 36 -223 89 -289 104 -25 6 -55 13 -66 15 -97 23
-236 38 -345 38 -77 0 -228 -10 -267 -18 -11 -3 -43 -8 -70 -12 -53 -9 -61
-10 -68 -14 -6 -3 -9 -4 -55 -14 -68 -15 -207 -69 -320 -124 -63 -31 -117 -59
-120 -62 -3 -3 -43 -31 -90 -62 -93 -62 -153 -112 -245 -203 -65 -65 -175
-197 -193 -232 -7 -12 -18 -28 -24 -35 -7 -8 -19 -24 -26 -37 -8 -13 -23 -40
-35 -60 -109 -190 -189 -432 -213 -642 -10 -87 -10 -351 0 -419 5 -30 9 -64
11 -75 5 -40 17 -101 26 -130 36 -124 51 -172 60 -187 5 -10 9 -23 9 -29 0
-35 171 -341 231 -413 5 -6 26 -31 47 -56 102 -123 253 -258 392 -350 67 -44
255 -142 300 -155 14 -4 39 -13 55 -20 72 -32 259 -77 385 -92 70 -9 352 -8
405 1 22 3 54 8 70 10 86 12 277 63 345 93 190 84 279 133 400 222 120 88 250
212 327 315 26 33 50 63 53 66 18 15 114 179 154 262 45 95 110 276 121 340 3
17 8 34 10 37 2 4 6 25 9 47 4 22 8 49 10 59 18 94 24 319 12 430 -19 190 -79
393 -172 582 l-31 63 77 105 c42 57 101 141 131 187 29 46 56 85 60 88 3 3 14
21 25 40 10 19 22 37 25 40 9 8 99 166 176 310 35 65 120 235 146 290 14 30
40 87 57 125 18 39 33 75 34 80 2 6 10 28 20 50 15 34 40 95 81 200 4 11 9 25
11 30 2 6 23 62 47 125 24 63 44 118 45 123 1 4 2 8 3 10 0 1 2 9 4 17 3 14
19 60 35 105 4 11 8 25 10 30 1 6 7 21 12 35 5 14 11 32 13 40 2 8 18 62 36
120 17 58 32 111 32 118 0 6 4 12 9 12 5 0 7 4 4 8 -3 5 2 31 10 58 8 27 31
112 50 189 36 139 41 158 50 204 3 14 7 28 10 33 3 4 -5 8 -18 7 -13 0 -75 2
-138 5 -347 16 -420 17 -421 4z m-1964 -2453 c131 -24 140 -26 149 -36 6 -5
18 -9 27 -9 21 0 183 -71 187 -82 2 -5 8 -8 14 -8 16 0 137 -84 188 -129 l45
-41 -70 -66 c-96 -90 -123 -114 -175 -154 -25 -19 -47 -37 -50 -41 -10 -12
-218 -148 -246 -161 -16 -7 -31 -15 -34 -19 -16 -18 -280 -129 -343 -144 -12
-3 -62 -14 -112 -25 -49 -12 -110 -23 -135 -25 -25 -3 -70 -8 -100 -11 -114
-11 -382 -5 -485 11 -16 2 -48 7 -70 10 -94 13 -115 18 -115 28 0 56 102 302
162 389 82 119 207 249 303 313 33 22 62 42 65 45 16 17 159 83 236 109 90 30
115 37 189 47 22 4 41 7 43 9 10 9 268 1 327 -10z m929 -835 c3 -14 9 -40 15
-57 5 -18 8 -33 6 -33 -3 0 0 -11 5 -25 6 -14 12 -61 16 -103 3 -42 7 -78 9
-80 2 -2 0 -15 -5 -28 -6 -14 -6 -26 1 -29 5 -4 7 -10 4 -14 -2 -5 -7 -35 -11
-67 -3 -32 -12 -88 -20 -124 -19 -85 -19 -83 -25 -95 -4 -5 -9 -23 -13 -40 -7
-29 -94 -215 -105 -225 -10 -9 -51 -69 -51 -75 0 -17 -155 -175 -225 -231 -27
-21 -52 -42 -55 -45 -19 -23 -265 -140 -325 -155 -169 -43 -367 -60 -480 -41
-22 4 -56 9 -75 13 -19 3 -66 15 -105 27 -38 11 -72 21 -75 22 -3 0 -31 13
-64 28 -32 15 -60 27 -62 27 -11 0 -144 88 -189 124 -134 108 -265 270 -327
406 -54 117 -71 170 -55 165 13 -4 55 -10 167 -22 94 -10 453 -10 540 0 124
14 232 34 355 63 52 13 128 35 150 44 11 5 31 12 44 16 13 3 40 13 60 22 20 9
38 16 41 17 27 8 227 105 279 136 50 29 267 172 281 185 8 8 51 43 95 78 44
34 103 84 130 109 52 47 61 48 69 7z"/>
</g>
</svg>
