<?xml version="1.0" encoding="UTF-8"?><svg id="Layer_2" xmlns="http://www.w3.org/2000/svg" viewBox="0 0 303.942749 304.969677"><defs><style>.cls-1{fill:none;}.cls-1,.cls-2{stroke-width:0px;}</style></defs><g id="Layer_1-2"><path class="cls-2" d="m241.198528,0c-7.828623,32.723871-18.196956,60.958604-29.949336,84.0272-6.197302,12.149048-12.952688,23.072029-20.070399,32.904602-15.332699-13.938349-35.490675-22.670209-57.793407-22.670209-47.613965,0-86.326069,38.725842-86.326069,86.312331s38.712104,86.312331,86.326069,86.312331c47.58649,0,86.298594-38.725842,86.298594-86.312331,0-14.755727-4.066282-28.44852-10.620758-40.609588,9.772471-12.597232,18.945646-26.8773,27.243059-43.161317,13.278101-26.063332,24.911573-58.287625,33.409576-95.775846m-136.330471,121.368695c15.452902,0,29.434181,6.161242,39.862615,16.033309-13.905723,14.077441-28.834885,23.882538-44.121221,28.737006-15.346437,4.847599-33.150158,5.213358-52.719141,1.60728,5.470935-26.437702,28.932764-46.377595,56.977747-46.377595Zm0,116.356111c-26.083963,0-47.948815-17.358972-55.318951-41.042317,7.689532,1.121318,15.207345,1.780716,22.458996,1.780716,13.132992,0,25.524162-1.840817,37.118561-5.508713,18.026955-5.719926,35.068248-16.347553,50.840546-31.161664,1.821928,5.63235,3.065166,11.523994,3.065166,17.753923,0,32.076921-26.101135,58.178056-58.164318,58.178056Z"/><rect class="cls-1" y="1.026928" width="303.942749" height="303.942749"/></g></svg>