<?xml version="1.0" encoding="utf-8"?>
<!-- Generator: Adobe Illustrator 28.0.0, SVG Export Plug-In . SVG Version: 6.00 Build 0)  -->
<svg version="1.1" id="Layer_1" xmlns="http://www.w3.org/2000/svg" xmlns:xlink="http://www.w3.org/1999/xlink" x="0px" y="0px"
	 viewBox="0 0 984.9 432.4" style="enable-background:new 0 0 984.9 432.4;" xml:space="preserve">
<style type="text/css">
	.st0{fill:#FFFFFF;}
</style>
<g>
	<path class="st0" d="M602.2,432.4H0V0h602.2c119.2,0,216.2,97,216.2,216.2S721.4,432.4,602.2,432.4z M13.5,418.9h588.7
		c111.8,0,202.7-90.9,202.7-202.7S714,13.5,602.2,13.5H13.5V418.9z M711.5,257.1c-22.9,0-41.5-18.6-41.5-41.5
		c0-22.9,18.6-41.5,41.5-41.5s41.5,18.6,41.5,41.5C753,238.4,734.4,257.1,711.5,257.1z M711.5,187.5c-15.4,0-28,12.6-28,28
		c0,15.4,12.6,28,28,28s28-12.6,28-28C739.5,200.1,726.9,187.5,711.5,187.5z"/>
	<path class="st0" d="M619,6.8h13.5v417.6H619V6.8z"/>
	<path class="st0" d="M811.7,209.5h173.2V223H811.7V209.5z"/>
</g>
<path class="st0" d="M50.5,58h38.9c18,0,28,8.3,28,19.8c0,7.5-4.8,15-14.7,17.4v0.2c10,1.8,18,6.8,18,18.2
	c0,17.5-18.4,21.1-31.8,21.1H50.5V58z M83.6,88.4c6.8,0,14.9-0.5,14.9-7.2c0-6.4-8.2-7.1-14.7-7.1H68.6v14.3H83.6z M85.2,118.6
	c6.7,0,16.1-0.5,16.1-7.6c0-6.9-9.3-7.6-15.7-7.6h-17v15.2C68.6,118.6,85.2,118.6,85.2,118.6z"/>
<path class="st0" d="M134.6,58h60.3v16.1h-42.2v13.3h39.8v17h-39.8v14.2h43.4v16.1h-61.5L134.6,58z"/>
<path class="st0" d="M234,109.1c-9.6-15.2-31.5-50-32.2-51.1h19.4c7.3,11.2,14.4,22.4,21.6,33.6h0.2c7.3-11.2,14.5-22.4,21.6-33.6
	h19.4C273.3,75,262.7,92,252,108.9v25.9h-18L234,109.1z"/>
<path class="st0" d="M283,96.5c0-23.8,20.9-40,46.6-40c25.9,0,46.6,16.4,46.6,40c0,23.4-20.7,39.9-46.6,39.9
	C304,136.4,283,120.3,283,96.5z M329.7,120c15.6,0,27.4-10,27.4-23.5c0-13.1-11.5-23.6-27.4-23.6c-15.5,0-27.7,9.9-27.7,23.6
	C302,110.5,314.4,120,329.7,120z"/>
<path class="st0" d="M390.2,58H409c13,14.7,26.8,29.8,39.9,45.6h0.3V58h18v76.7h-18.7c-13.3-14.9-26.7-28.9-39.9-44.6h-0.3v44.6
	h-18.1V58z"/>
<path class="st0" d="M486.2,58h35.7c30.7,0,43.7,17.1,43.7,37.9c0,22.8-15.8,38.8-42.6,38.8h-36.8L486.2,58L486.2,58z M520.8,118.6
	c12.8,0,25.8-3.1,25.8-21.9c0-22.5-17.6-22.5-29.2-22.5h-13.1v44.5H520.8z"/>
<path class="st0" d="M50.5,192.1V176h72.9v16.1H96v60.6h-18v-60.6H50.5z"/>
<path class="st0" d="M134.3,176h18.1v30.5h40.4V176H211v76.7h-18.1v-29.2h-40.4v29.2h-18.1L134.3,176z"/>
<path class="st0" d="M229.9,176h60.3v16.1H248v13.3h39.8v17H248v14.2h43.4v16.1h-61.5L229.9,176z"/>
<path class="st0" d="M50.5,293.9h18.1v60.6h40v16.1H50.5L50.5,293.9z"/>
<path class="st0" d="M146,293.9h21.1l34.8,76.7h-19.2l-8.6-17.5h-35.7l-8.6,17.5h-18.8L146,293.9z M166.2,336.1
	c-3.2-6.8-6.4-13.8-9.6-21.1h-0.3c-3.2,7.3-6.4,14.3-9.6,21.1H166.2L166.2,336.1z"/>
<path class="st0" d="M211.5,293.9h38.8c18,0,28,8.3,28,19.8c0,7.5-4.8,15-14.6,17.4v0.2c10,1.8,18,6.8,18,18.2
	c0,17.5-18.4,21.1-31.8,21.1h-38.5L211.5,293.9z M244.6,324.3c6.8,0,14.9-0.5,14.9-7.2c0-6.4-8.2-7.1-14.7-7.1h-15.1v14.3H244.6
	L244.6,324.3z M246.3,354.5c6.7,0,16.1-0.5,16.1-7.6c0-6.9-9.3-7.6-15.7-7.6h-17v15.2H246.3L246.3,354.5z"/>
<path class="st0" d="M295.7,293.9H356V310h-42.2v13.3h39.8v17h-39.8v14.2h43.4v16.1h-61.5V293.9z"/>
<path class="st0" d="M372.1,293.9h18.1v60.6h40v16.1h-58.1L372.1,293.9z"/>
</svg>
