<?xml version="1.0" encoding="UTF-8"?><svg id="Layer_2" xmlns="http://www.w3.org/2000/svg" viewBox="0 0 867.739094 1540.818672"><defs>
<style>.cls-1{stroke-width:0px;}</style>
</defs><g id="Layer_1-2"><rect class="cls-1" y="751.012072" width="867.739094" height="28.134276"/><path class="cls-1" d="m539.084595,0l-26.705582,8.874386c71.24236,214.262842,46.377595,389.195394-.631922,481.469774-6.197302,12.149048-12.952688,23.072029-20.070399,32.904602-15.332699-13.938349-35.490675-22.670209-57.793407-22.670209-47.613965,0-86.326069,38.725842-86.326069,86.312331s38.712104,86.312331,86.326069,86.312331c47.58649,0,86.298594-38.725842,86.298594-86.312331,0-14.755727-4.066282-28.44852-10.620758-40.609588,9.772471-12.597232,18.945646-26.8773,27.243059-43.161317,49.592156-97.343495,76.242788-280.628411,2.280415-503.119979Zm-105.201311,528.712828c15.452902,0,29.434181,6.161242,39.862615,16.033309-13.905723,14.077441-28.834885,23.882538-44.121221,28.737006-15.346437,4.847599-33.150158,5.213358-52.719141,1.60728,5.470935-26.437702,28.932764-46.377595,56.977747-46.377595Zm0,116.356111c-26.083963,0-47.948815-17.358972-55.318951-41.042317,7.689532,1.121318,15.207345,1.780716,22.458996,1.780716,13.132992,0,25.524162-1.840817,37.118561-5.508713,18.026955-5.719926,35.068248-16.347553,50.840546-31.161664,1.821928,5.63235,3.065166,11.523994,3.065166,17.753923,0,32.076921-26.101135,58.178056-58.164318,58.178056Z"/><path class="cls-1" d="m33.107229,264.54187c36.926237,77.863806,84.100604,149.243541,136.440248,206.446239l20.771008-18.985141c-50.471352-55.155819-96.052176-124.158977-131.769518-199.522569l-25.441738,12.061472Z"/><path class="cls-1" d="m0,1093.362798h55.636629c25.743961,0,40.113323,11.841673,40.113323,28.3266,0,10.687728-6.896195,21.402931-20.990807,24.919715v.274749c14.369362,2.527689,25.771436,9.726107,25.771436,26.046185,0,25.057089-26.320934,30.277316-45.470924,30.277316H0v-109.844565Zm47.311741,43.520208c9.726107,0,21.265556-.714347,21.265556-10.275605,0-9.149135-11.676823-10.13823-20.990807-10.13823h-21.677679v20.413835h21.402931Zm2.390314,43.245459c9.588733,0,23.106373-.714347,23.106373-10.852577,0-9.863481-13.242892-10.852577-22.529401-10.852577h-24.370217v21.705154h23.793245Z"/><path class="cls-1" d="m120.422393,1093.362798h86.326069v23.106373h-60.417258v19.012616h57.037848v24.370217h-57.037848v20.27646h62.093226v23.078898h-88.002036v-109.844565Z"/><path class="cls-1" d="m262.65984,1166.445975c-13.792389-21.815054-45.058801-71.517109-46.047897-73.083177h27.749627c10.412979,16.072804,20.551209,32.118133,30.964188,48.163462h.302224c10.412979-16.045329,20.688584-32.090658,30.964188-48.163462h27.749627c-15.358457,24.232843-30.552065,48.60306-45.910522,72.808429v37.036136h-25.771436v-36.761388Z"/><path class="cls-1" d="m332.830681,1148.422455c0-34.06885,29.975093-57.312597,66.73648-57.312597,37.036136,0,66.73648,23.518496,66.73648,57.312597,0,33.519352-29.562969,57.175223-66.73648,57.175223-36.596538,0-66.73648-23.078898-66.73648-57.175223Zm66.873855,33.656726c22.392026,0,39.289077-14.369362,39.289077-33.656726,0-18.710392-16.484927-33.794101-39.289077-33.794101-22.254652,0-39.7012,14.231987-39.7012,33.794101,0,20.001712,17.748772,33.656726,39.7012,33.656726Z"/><path class="cls-1" d="m486.305353,1093.362798h26.897906c18.573018,20.990807,38.299981,42.668487,57.175223,65.335262h.412123v-65.335262h25.771436v109.844565h-26.760532c-19.012616-21.265556-38.162607-41.404642-57.147748-63.796668h-.439598v63.796668h-25.908811v-109.844565Z"/><path class="cls-1" d="m623.734696,1093.362798h51.130749c43.904856,0,62.505349,24.507592,62.505349,54.235411,0,32.667631-22.666775,55.609154-60.966756,55.609154h-52.669342v-109.844565Zm49.564681,86.765667c18.298269,0,36.898762-4.50588,36.898762-31.403786,0-32.255508-25.221939-32.255508-41.816765-32.255508h-18.737867v63.659294h23.655871Z"/><path class="cls-1" d="m0,1285.274826v-23.106373h104.322114v23.106373h-39.261602v86.738192h-25.771436v-86.738192H0Z"/><path class="cls-1" d="m120.01027,1262.168453h25.908811v43.657582h57.862095v-43.657582h25.936285v109.844565h-25.936285v-41.816765h-57.862095v41.816765h-25.908811v-109.844565Z"/><path class="cls-1" d="m256.890116,1262.168453h86.326069v23.106373h-60.417258v19.012616h57.037848v24.370217h-57.037848v20.27646h62.093226v23.078898h-88.002036v-109.844565Z"/><path class="cls-1" d="m0,1430.974107h25.908811v86.765667h57.312597v23.078898H0v-109.844565Z"/><path class="cls-1" d="m136.742471,1430.974107h30.277316l49.83943,109.844565h-27.447404l-12.253796-25.057089h-51.103274l-12.253796,25.057089h-26.897906l49.83943-109.844565Zm28.876098,60.417258c-4.643255-9.698632-9.149135-19.699488-13.792389-30.139942h-.439598c-4.643255,10.440454-9.149135,20.44131-13.792389,30.139942h28.024376Z"/><path class="cls-1" d="m230.541707,1430.974107h55.609154c25.771436,0,40.140798,11.841673,40.140798,28.3266,0,10.687728-6.896195,21.402931-20.963332,24.919715v.274749c14.341887,2.527689,25.743961,9.726107,25.743961,26.046185,0,25.057089-26.320934,30.277316-45.470924,30.277316h-55.059657v-109.844565Zm47.311741,43.520208c9.726107,0,21.265556-.714347,21.265556-10.275605,0-9.149135-11.676823-10.13823-20.990807-10.13823h-21.677679v20.413835h21.402931Zm2.390314,43.245459c9.588733,0,23.106373-.714347,23.106373-10.852577,0-9.863481-13.242892-10.852577-22.529401-10.852577h-24.370217v21.705154h23.793245Z"/><path class="cls-1" d="m350.9641,1430.974107h86.326069v23.106373h-60.417258v19.012616h57.037848v24.370217h-57.037848v20.27646h62.093226v23.078898h-88.002036v-109.844565Z"/><path class="cls-1" d="m460.396542,1430.974107h25.908811v86.765667h57.312597v23.078898h-83.221408v-109.844565Z"/></g></svg>