<?xml version="1.0" encoding="UTF-8"?><svg id="Layer_2" xmlns="http://www.w3.org/2000/svg" viewBox="0 0 1050.364517 165.837198"><defs><style>.cls-1{fill:#1d1d1b;stroke-width:0px;}</style></defs><g id="Layer_1-2"><path class="cls-1" d="m832.568641,165.837198H0V0h832.568641c61.270701,0,111.113445,21.6462,111.113445,82.916901s-49.842744,82.920298-111.113445,82.920298ZM6.95733,158.879869h825.611312c57.43194,0,104.156115-18.527631,104.156115-75.962968S890.000581,6.95733,832.568641,6.95733H6.95733v151.922539Zm881.772724-54.965286c-11.767671,0-21.340793-9.57652-21.340793-21.34419s9.573122-21.34419,21.340793-21.34419c11.774465,0,21.347587,9.57652,21.347587,21.34419s-9.573122,21.34419-21.347587,21.34419Zm0-35.731051c-7.92891,0-14.383464,6.454554-14.383464,14.386861s6.454554,14.386861,14.383464,14.386861c7.935704,0,14.390258-6.454554,14.390258-14.386861s-6.454554-14.386861-14.390258-14.386861Z"/><rect class="cls-1" x="841.190566" y="3.478665" width="6.95733" height="158.186853"/><rect class="cls-1" x="940.203421" y="79.438236" width="110.161096" height="6.95733"/></g></svg>