<?xml version="1.0" encoding="UTF-8"?><svg id="Layer_2" xmlns="http://www.w3.org/2000/svg" viewBox="0 0 338.84082 93.024902"><defs><style>.cls-1,.cls-2{stroke-width:0px;}.cls-2{fill:#fff;}</style></defs><g id="Layer_1-2"><path class="cls-2" d="m292.32857,3.12485H3.125445v86.775269h289.203125c23.962402,0,43.387695-19.425293,43.387695-43.387573v-.000122c0-23.96228-19.425293-43.387573-43.387695-43.387573Zm4.982422,57.642212c-7.872559,0-14.254639-6.382019-14.254639-14.254639,0-7.872559,6.38208-14.254517,14.254639-14.254517s14.254395,6.381958,14.254395,14.254517c0,7.87262-6.381836,14.254639-14.254395,14.254639Z"/><path class="cls-1" d="m292.328125,93.024902H0V0h292.328125c25.647461,0,46.512695,20.865234,46.512695,46.512207s-20.865234,46.512695-46.512695,46.512695ZM6.25,86.774902h286.078125c22.201172,0,40.262695-18.061523,40.262695-40.262207,0-22.201172-18.061523-40.262695-40.262695-40.262695H6.25v80.524902Zm291.060547-22.882812c-9.583008,0-17.378906-7.796387-17.378906-17.379883,0-9.583008,7.795898-17.379395,17.378906-17.379395s17.379883,7.796387,17.379883,17.379395c0,9.583496-7.796875,17.379883-17.379883,17.379883Zm0-28.509277c-6.136719,0-11.128906,4.992676-11.128906,11.129395,0,6.137207,4.992188,11.129883,11.128906,11.129883s11.129883-4.992676,11.129883-11.129883c0-6.136719-4.993164-11.129395-11.129883-11.129395Z"/><rect class="cls-1" x="260.616211" y="3.125" width="6.25" height="86.774902"/><path class="cls-1" d="m27.546832,68.67203V24.296053h17.124512c8.932129,0,13.881836,5.233887,13.881836,11.549072,0,4.209961-2.389648,8.647705-7.566895,10.126953v.11377c5.746582,1.080811,9.045898,5.120117,9.045898,10.581787,0,8.078857-7.282227,12.004395-14.393555,12.004395h-18.091797Zm15.531738-25.032715c5.120117,0,9.045898-2.33252,9.045898-6.77002,0-4.665283-4.380859-6.940918-9.216797-6.940918h-9.273438v13.710938h9.444336Zm1.081055,19.400391c5.062988,0,9.387207-2.33252,9.387207-6.884033,0-4.721924-4.494629-7.168457-9.500977-7.168457h-10.411621v14.05249h10.525391Z"/><path class="cls-1" d="m65.320758,46.540926c0-13.483643,10.012695-23.155273,22.358398-23.155273,12.516602,0,22.358887,9.956299,22.358887,23.155273,0,13.255859-9.899414,23.098389-22.358887,23.098389-12.288574,0-22.358398-9.558105-22.358398-23.098389Zm38.231445,0c0-9.956299-7.054688-17.40918-15.815918-17.40918-8.70459,0-15.930176,7.282227-15.930176,17.40918,0,10.126709,7.282227,17.352051,15.930176,17.352051,8.70459,0,15.815918-7.339111,15.815918-17.352051Z"/><path class="cls-1" d="m115.269,46.540926c0-13.483643,10.012695-23.155273,22.358398-23.155273,12.516602,0,22.358887,9.956299,22.358887,23.155273,0,13.255859-9.899414,23.098389-22.358887,23.098389-12.288574,0-22.358398-9.558105-22.358398-23.098389Zm38.231445,0c0-9.956299-7.054688-17.40918-15.815918-17.40918-8.70459,0-15.930176,7.282227-15.930176,17.40918,0,10.126709,7.282227,17.352051,15.930176,17.352051,8.70459,0,15.815918-7.339111,15.815918-17.352051Z"/><path class="cls-1" d="m168.00484,68.67203V24.296053h6.087402v21.73291h.227539c6.599609-7.339111,13.199219-14.621338,19.798828-21.73291h7.282227l-17.750488,19.400146c6.201172,8.306396,12.459473,16.669434,18.660645,24.97583h-7.453125c-5.120117-6.770264-10.297363-13.540283-15.36084-20.310547-1.820312,1.934326-3.583984,3.925537-5.404785,5.859863v14.450684h-6.087402Z"/><path class="cls-1" d="m202.650348,56.553866l5.688965-1.991211c1.820801,6.713379,6.48584,9.444092,11.378418,9.444092,4.494629,0,9.103027-2.161865,9.103027-7.111328,0-4.835938-4.4375-6.030762-8.477051-7.282227l-4.096191-1.251709c-4.380859-1.365479-12.061523-4.209961-12.061523-12.573242,0-7.964844,7.054688-12.402588,14.849121-12.402588,7.623535,0,13.312988,4.323975,15.019531,10.468262l-5.575195,2.275635c-1.479492-4.32373-4.835938-7.168457-9.729004-7.168457-4.665039,0-8.135254,2.560303-8.135254,6.37207,0,4.778809,5.461426,6.599365,8.59082,7.623535l4.494141,1.422363c4.551758,1.479004,11.720215,3.470459,11.720215,11.719727,0,7.964844-6.713379,13.540527-15.645508,13.540527-7.566895,0-14.735352-3.925781-17.124512-13.085449Z"/></g></svg>