<?xml version="1.0" encoding="UTF-8"?><svg id="Layer_2" xmlns="http://www.w3.org/2000/svg" viewBox="0 0 338.84082 93.025391"><defs><style>.cls-1,.cls-2{stroke-width:0px;}.cls-2{fill:#fff;}</style></defs><g id="Layer_1-2"><path class="cls-2" d="m292.32857,3.125027H3.125445v86.775269h289.203125c23.962402,0,43.387695-19.425293,43.387695-43.387573v-.000122c0-23.96228-19.425293-43.387573-43.387695-43.387573Zm4.982422,57.642212c-7.872559,0-14.254639-6.382019-14.254639-14.254639,0-7.872559,6.38208-14.254517,14.254639-14.254517s14.254395,6.381958,14.254395,14.254517c0,7.87262-6.381836,14.254639-14.254395,14.254639Z"/><path class="cls-1" d="m292.328125,93.025391H0V0h292.328125c25.647461,0,46.512695,20.865234,46.512695,46.512695s-20.865234,46.512695-46.512695,46.512695ZM6.25,86.775391h286.078125c22.201172,0,40.262695-18.061523,40.262695-40.262695s-18.061523-40.262695-40.262695-40.262695H6.25v80.525391Zm291.060547-22.882812c-9.583008,0-17.378906-7.796875-17.378906-17.379883s7.795898-17.379883,17.378906-17.379883,17.379883,7.796875,17.379883,17.379883-7.796875,17.379883-17.379883,17.379883Zm0-28.509766c-6.136719,0-11.128906,4.993164-11.128906,11.129883s4.992188,11.129883,11.128906,11.129883,11.129883-4.993164,11.129883-11.129883-4.993164-11.129883-11.129883-11.129883Z"/><rect class="cls-1" x="260.616211" y="3.125" width="6.25" height="86.775391"/><path class="cls-1" d="m43.874957,24.324673c4.892578,0,15.133301,2.275635,15.133301,13.824707,0,11.890625-10.411133,14.336914-14.734863,14.336914h-9.899414v16.214355h-7.168457V24.324673h16.669434Zm-1.194824,21.220703c4.15332,0,8.818359-1.593018,8.818359-7.339111,0-5.632324-4.722168-7.282227-8.875-7.282227h-8.249512v14.621338h8.306152Z"/><path class="cls-1" d="m65.604938,68.70065V24.324673h16.726074c14.79248,0,21.050293,9.89917,21.050293,21.903564,0,13.198975-7.623535,22.472412-20.538086,22.472412h-17.238281Zm16.612305-6.599609c7.395996,0,13.654297-4.32373,13.654297-15.474609,0-12.459473-7.907715-15.702393-15.303711-15.702393h-7.794434v31.177002h9.443848Z"/><path class="cls-1" d="m139.22066,31.037808h-21.050293v12.402588h19.912109v6.884033h-19.912109v18.376221h-7.168457V24.324673h28.21875v6.713135Z"/></g></svg>