<?xml version="1.0" encoding="UTF-8"?><svg id="Layer_2" xmlns="http://www.w3.org/2000/svg" viewBox="0 0 338.84082 93.024414"><defs><style>.cls-1,.cls-2{stroke-width:0px;}.cls-2{fill:#fff;}</style></defs><g id="Layer_1-2"><path class="cls-2" d="m292.32857,3.12454H3.125445v86.775269h289.203125c23.962402,0,43.387695-19.425293,43.387695-43.387573v-.000122c0-23.96228-19.425293-43.387573-43.387695-43.387573Zm4.982422,57.642212c-7.872559,0-14.254639-6.382019-14.254639-14.254639,0-7.872559,6.38208-14.254517,14.254639-14.254517s14.254395,6.381958,14.254395,14.254517c0,7.87262-6.381836,14.254639-14.254395,14.254639Z"/><path class="cls-1" d="m292.328125,93.024414H0V0h292.328125c25.647461,0,46.512695,20.865234,46.512695,46.511719,0,25.647461-20.865234,46.512695-46.512695,46.512695ZM6.25,86.774414h286.078125c22.201172,0,40.262695-18.061523,40.262695-40.261719,0-22.201172-18.061523-40.262695-40.262695-40.262695H6.25v80.524414Zm291.060547-22.882812c-9.583008,0-17.378906-7.796875-17.378906-17.379883s7.795898-17.378906,17.378906-17.378906,17.379883,7.795898,17.379883,17.378906-7.796875,17.379883-17.379883,17.379883Zm0-28.508789c-6.136719,0-11.128906,4.992188-11.128906,11.128906s4.992188,11.129883,11.128906,11.129883,11.129883-4.993164,11.129883-11.129883-4.993164-11.128906-11.129883-11.128906Z"/><rect class="cls-1" x="260.616211" y="3.125" width="6.25" height="86.774414"/><path class="cls-1" d="m36.421832,68.700163l-13.540039-44.375977h6.883789c3.754883,12.345459,7.054688,23.610352,10.524902,35.955811h.114258c3.583984-12.00415,7.282227-23.95166,10.866211-35.955811h6.940918c3.641113,12.00415,7.338867,23.95166,10.97998,35.955811h.11377c3.470703-12.231689,6.827148-24.179199,10.468262-35.955811h6.827148l-13.540527,44.375977h-7.509766c-3.982422-12.345703-7.338867-23.325928-10.752441-34.98877h-.11377c-3.584473,12.402588-6.883789,23.382812-10.638672,34.98877h-7.624023Z"/><path class="cls-1" d="m92.741656,68.700163V24.324186h28.38916v5.632324h-22.301758v13.14209h21.164062v5.859863h-21.164062v13.995605h22.870605v5.746094h-28.958008Z"/><path class="cls-1" d="m129.946246,68.700163V24.324186h17.124512c8.932129,0,13.881836,5.233887,13.881836,11.549072,0,4.209961-2.389648,8.647705-7.566895,10.126953v.11377c5.746582,1.080811,9.045898,5.120117,9.045898,10.581787,0,8.078857-7.282227,12.004395-14.393555,12.004395h-18.091797Zm15.531738-25.032715c5.120117,0,9.045898-2.33252,9.045898-6.77002,0-4.665283-4.380859-6.940918-9.216797-6.940918h-9.273438v13.710938h9.444336Zm1.081055,19.400391c5.062988,0,9.387207-2.33252,9.387207-6.884033,0-4.721924-4.494629-7.168457-9.500977-7.168457h-10.411621v14.05249h10.525391Z"/></g></svg>