<?xml version="1.0" encoding="UTF-8"?><svg id="Layer_2" xmlns="http://www.w3.org/2000/svg" viewBox="0 0 338.84082 93.025391"><defs><style>.cls-1,.cls-2{stroke-width:0px;}.cls-2{fill:#fff;}</style></defs><g id="Layer_1-2"><path class="cls-2" d="m292.32857,3.125188H3.125445v86.775269h289.203125c23.962402,0,43.387695-19.425293,43.387695-43.387573v-.000122c0-23.96228-19.425293-43.387573-43.387695-43.387573Zm4.982422,57.642212c-7.872559,0-14.254639-6.382019-14.254639-14.254639,0-7.872559,6.38208-14.254517,14.254639-14.254517s14.254395,6.381958,14.254395,14.254517c0,7.87262-6.381836,14.254639-14.254395,14.254639Z"/><path class="cls-1" d="m292.328125,93.025391H0V0h292.328125c25.647461,0,46.512695,20.865723,46.512695,46.512695s-20.865234,46.512695-46.512695,46.512695ZM6.25,86.775391h286.078125c22.201172,0,40.262695-18.061523,40.262695-40.262695s-18.061523-40.262695-40.262695-40.262695H6.25v80.525391Zm291.060547-22.882812c-9.583008,0-17.378906-7.796387-17.378906-17.379883,0-9.583008,7.795898-17.379395,17.378906-17.379395s17.379883,7.796387,17.379883,17.379395c0,9.583496-7.796875,17.379883-17.379883,17.379883Zm0-28.509277c-6.136719,0-11.128906,4.992676-11.128906,11.129395,0,6.137207,4.992188,11.129883,11.128906,11.129883s11.129883-4.992676,11.129883-11.129883c0-6.136719-4.993164-11.129395-11.129883-11.129395Z"/><rect class="cls-1" x="260.616211" y="3.125" width="6.25" height="86.775391"/><path class="cls-1" d="m55.424274,30.042485h-21.790039v13.710938h20.651855v5.860107h-20.651855v19.058838h-6.087402V24.296391h27.877441v5.746094Z"/><path class="cls-1" d="m62.817828,68.672368V24.296391h6.087402v44.375977h-6.087402Z"/><path class="cls-1" d="m85.801227,62.926274h21.220703v5.746094h-27.308105V24.296391h6.087402v38.629883Z"/><path class="cls-1" d="m113.22066,68.672368V24.296391h7.509766c5.404785,11.662842,10.695801,23.325684,15.815918,35.216309h.11377c5.291016-11.890625,10.582031-23.553467,15.816406-35.216309h7.566406v44.375977h-6.201172v-32.77002h-.227539c-4.778809,11.435303-9.671875,22.187988-14.564453,32.77002h-4.892578c-4.893066-10.582031-9.785645-21.334717-14.564453-32.77002h-.170898v32.77002h-6.201172Z"/><path class="cls-1" d="m167.321735,56.554204l5.688965-1.991211c1.820801,6.713379,6.48584,9.444092,11.378418,9.444092,4.494629,0,9.103027-2.161865,9.103027-7.111328,0-4.835938-4.437988-6.030762-8.477051-7.282227l-4.096191-1.251709c-4.380859-1.365479-12.061523-4.209961-12.061523-12.573242,0-7.964844,7.054688-12.402588,14.849121-12.402588,7.623535,0,13.312988,4.323975,15.019531,10.468262l-5.575195,2.275635c-1.479492-4.32373-4.835938-7.168457-9.729004-7.168457-4.665039,0-8.135254,2.560303-8.135254,6.37207,0,4.778809,5.461426,6.599365,8.59082,7.623535l4.494141,1.422363c4.551758,1.479004,11.720215,3.470459,11.720215,11.719727,0,7.964844-6.713379,13.540527-15.645508,13.540527-7.566895,0-14.735352-3.925781-17.124512-13.085449Z"/></g></svg>