<?xml version="1.0" encoding="UTF-8"?><svg id="Layer_2" xmlns="http://www.w3.org/2000/svg" viewBox="0 0 324.944451 51.303977"><defs><style>.cls-1{fill:#010101;opacity:.32;}.cls-1,.cls-2{stroke-width:0px;}.cls-2{fill:#fff;}</style></defs><g id="Layer_1-2"><path class="cls-1" d="m261.096719,1.977055H0v47.350966l261.096719-.091402c19.341277,0,28.691738-4.243344,28.691738-23.58462s-9.350461-23.674944-28.691738-23.674944Zm13.733913,30.219449c-3.674122,0-6.652555-2.978433-6.652555-6.652478,0-3.674122,2.978433-6.652555,6.652555-6.652555,3.674045,0,6.652478,2.978433,6.652478,6.652555,0,3.674045-2.978433,6.652478-6.652478,6.652478Z"/><path class="cls-2" d="m17.881994,32.257676c0-2.847656,2.927734-3.884766,6.173828-4.470703,2.927734-.505859,5.535156-.585938,5.535156-2.289062,0-1.356445-1.569336-2.581055-3.964844-2.581055-2.128906,0-3.77832.985352-4.390625,2.741211l-2.741211-.851562c1.038086-2.954102,4.205078-4.125,7.211914-4.125,3.645508,0,6.8125,1.650391,6.8125,5.083008v5.508789c0,2.421875.212891,3.432617.558594,4.603516h-2.847656c-.319336-.825195-.425781-1.623047-.425781-2.52832h-.079102c-1.038086,1.729492-3.166992,2.980469-6.094727,2.980469-3.033203,0-5.748047-1.330078-5.748047-4.071289Zm6.360352,1.942383c3.299805,0,5.348633-2.31543,5.348633-4.071289v-1.650391c-1.064453.505859-1.916016.746094-3.964844,1.091797-1.755859.292969-4.629883.797852-4.629883,2.634766,0,1.25,1.330078,1.995117,3.246094,1.995117Z"/><path class="cls-2" d="m39.140783,33.374864h-.052734v2.501953h-2.821289V14.587754h2.874023v9.12793c1.490234-2.049805,3.832031-3.03418,6.493164-3.03418,4.683594,0,7.983398,3.379883,7.983398,7.796875,0,4.791016-3.725586,7.850586-8.168945,7.850586-2.794922,0-5.056641-1.170898-6.307617-2.954102Zm5.775391.425781c3.299805,0,5.694336-2.234375,5.694336-5.294922,0-3.03418-2.421875-5.269531-5.694336-5.269531-3.220703,0-5.828125,2.182617-5.828125,5.295898s2.634766,5.268555,5.828125,5.268555Z"/><path class="cls-2" d="m55.022619,28.53209c0-4.603516,3.699219-7.850586,8.96875-7.850586,5.21582,0,8.914062,3.24707,8.914062,7.850586s-3.698242,7.796875-8.914062,7.796875c-5.269531,0-8.96875-3.193359-8.96875-7.796875Zm8.96875,5.268555c3.485352,0,5.880859-2.181641,5.880859-5.268555,0-3.113281-2.395508-5.295898-5.880859-5.295898-3.512695,0-5.93457,2.182617-5.93457,5.295898,0,3.086914,2.421875,5.268555,5.93457,5.268555Z"/><path class="cls-2" d="m75.3234,30.368028v-9.260742h2.874023v8.302734c0,3.060547,2.022461,4.390625,4.28418,4.390625,3.139648,0,4.896484-2.261719,4.896484-4.549805v-8.143555h2.874023v10.166016c0,2.288086.186523,3.326172.584961,4.603516h-2.900391c-.265625-.904297-.425781-1.676758-.399414-2.289062h-.052734c-1.224609,1.836914-3.273438,2.741211-5.774414,2.741211-3.379883,0-6.386719-1.729492-6.386719-5.960938Z"/><path class="cls-2" d="m95.463048,31.326035v-7.770508h-3.512695v-2.448242h3.512695v-4.28418h2.847656v4.28418h5.242188v2.448242h-5.242188v6.866211c0,1.542969,0,3.458984,2.500977,3.458984.772461,0,1.756836-.212891,2.741211-.665039v2.474609c-.904297.425781-2.128906.638672-3.273438.638672-4.816406,0-4.816406-3.379883-4.816406-5.00293Z"/><path class="cls-2" d="m112.251134,30.368028v-9.260742h2.874023v8.302734c0,3.060547,2.022461,4.390625,4.28418,4.390625,3.139648,0,4.896484-2.261719,4.896484-4.549805v-8.143555h2.874023v10.166016c0,2.288086.186523,3.326172.584961,4.603516h-2.900391c-.265625-.904297-.425781-1.676758-.399414-2.289062h-.052734c-1.224609,1.836914-3.273438,2.741211-5.774414,2.741211-3.379883,0-6.386719-1.729492-6.386719-5.960938Z"/><path class="cls-2" d="m129.464025,32.177598l2.661133-.797852c.87793,1.755859,2.84668,2.713867,4.736328,2.713867,1.331055,0,3.486328-.505859,3.486328-2.101562,0-1.411133-1.80957-1.836914-3.326172-2.182617l-1.756836-.425781c-1.783203-.425781-4.976562-1.463867-4.976562-4.337891,0-2.820312,3.03418-4.364258,6.094727-4.364258,3.193359,0,5.641602,1.59668,6.413086,3.672852l-2.6875.851562c-.532227-1.198242-1.863281-2.289062-3.912109-2.289062-1.729492,0-3.006836.745117-3.006836,1.942383,0,1.490234,2.181641,2.049805,3.77832,2.421875l1.570312.373047c1.676758.37207,4.842773,1.117188,4.842773,4.044922,0,2.713867-2.633789,4.629883-6.493164,4.629883-3.645508,0-6.519531-1.649414-7.423828-4.151367Z"/><path class="cls-2" d="m257.566355,51.303977H0V0h257.566355c18.954919,0,34.374445,6.696544,34.374445,25.651463s-15.419526,25.652514-34.374445,25.652514ZM2.152344,49.151634h255.414011c17.767346,0,32.222101-5.731773,32.222101-23.50017s-14.454755-23.499119-32.222101-23.499119H2.152344v46.99929Zm272.788303-17.004254c-3.640488,0-6.602063-2.962626-6.602063-6.603114s2.961575-6.603114,6.602063-6.603114c3.64259,0,6.604164,2.962626,6.604164,6.603114s-2.961575,6.603114-6.604164,6.603114Zm0-11.053883c-2.452915,0-4.449719,1.996803-4.449719,4.45077s1.996803,4.45077,4.449719,4.45077c2.455017,0,4.451821-1.996803,4.451821-4.45077s-1.996803-4.45077-4.451821-4.45077Z"/><rect class="cls-2" x="260.233664" y="1.076172" width="2.152344" height="48.93724"/><rect class="cls-2" x="290.864628" y="24.575291" width="34.079823" height="2.152344"/></g></svg>