<?xml version="1.0" encoding="UTF-8"?><svg id="Layer_2" xmlns="http://www.w3.org/2000/svg" viewBox="0 0 324.944451 51.303977"><defs><style>.cls-1{fill:#010101;opacity:.32;}.cls-1,.cls-2{stroke-width:0px;}.cls-2{fill:#fff;}</style></defs><g id="Layer_1-2"><path class="cls-1" d="m261.096719,1.977055H0v47.350966l261.096719-.091402c19.341277,0,28.691738-4.243344,28.691738-23.58462s-9.350461-23.674944-28.691738-23.674944Zm13.733913,30.219449c-3.674122,0-6.652555-2.978433-6.652555-6.652478,0-3.674122,2.978433-6.652555,6.652555-6.652555,3.674045,0,6.652478,2.978433,6.652478,6.652555,0,3.674045-2.978433,6.652478-6.652478,6.652478Z"/><path class="cls-2" d="m18.707189,37.872922l2.608398-.851562c.851562,1.80957,2.554688,2.820312,5.481445,2.820312,3.006836,0,5.535156-1.436523,5.535156-5.561523v-1.277344h-.080078c-1.330078,1.96875-3.698242,2.820312-6.200195,2.820312-4.976562,0-8.196289-3.40625-8.196289-7.556641,0-4.444336,3.566406-7.584961,8.143555-7.584961,2.740234,0,5.082031,1.144531,6.333008,2.980469h.053711v-2.554688h2.820312v13.092773c0,6.014648-3.751953,7.957031-8.382812,7.957031-3.485352,0-6.678711-.984375-8.116211-4.28418Zm7.824219-4.577148c3.246094,0,5.854492-2.235352,5.854492-5.083008,0-2.874023-2.608398-5.00293-5.854492-5.00293-3.273438,0-5.668945,2.208984-5.668945,5.00293,0,2.847656,2.421875,5.083008,5.668945,5.083008Z"/><path class="cls-2" d="m37.862462,32.257688c0-2.847656,2.927734-3.885742,6.173828-4.470703,2.927734-.505859,5.535156-.584961,5.535156-2.288086,0-1.357422-1.569336-2.582031-3.964844-2.582031-2.128906,0-3.77832.984375-4.390625,2.741211l-2.741211-.851562c1.038086-2.954102,4.205078-4.125,7.211914-4.125,3.645508,0,6.8125,1.650391,6.8125,5.083008v5.508789c0,2.420898.212891,3.432617.558594,4.603516h-2.847656c-.319336-.825195-.425781-1.623047-.425781-2.52832h-.079102c-1.038086,1.730469-3.166992,2.980469-6.094727,2.980469-3.033203,0-5.748047-1.330078-5.748047-4.071289Zm6.360352,1.942383c3.299805,0,5.348633-2.314453,5.348633-4.071289v-1.649414c-1.064453.504883-1.916016.744141-3.964844,1.09082-1.755859.291992-4.629883.797852-4.629883,2.633789,0,1.250977,1.330078,1.996094,3.246094,1.996094Z"/><path class="cls-2" d="m56.247228,14.587766h2.874023v21.289062h-2.874023V14.587766Z"/><path class="cls-2" d="m63.057775,14.587766h2.874023v21.289062h-2.874023V14.587766Z"/><path class="cls-2" d="m68.590978,28.558469c0-4.577148,3.672852-7.876953,8.728516-7.876953,3.672852,0,8.223633,1.942383,8.223633,7.611328v.87793h-14.024414c.186523,2.954102,2.6875,4.736328,5.960938,4.736328,2.713867,0,4.683594-1.277344,5.615234-3.113281l2.633789.984375c-1.277344,2.741211-4.390625,4.550781-8.249023,4.550781-5.083008,0-8.888672-3.113281-8.888672-7.770508Zm13.998047-1.383789c-.160156-3.060547-2.847656-4.151367-5.295898-4.151367-3.060547,0-5.135742,1.703125-5.641602,4.151367h10.9375Z"/><path class="cls-2" d="m88.332189,21.107297h2.821289v2.688477h.132812c.87793-1.756836,2.954102-3.114258,5.455078-3.114258.612305,0,1.304688.080078,1.943359.292969v2.980469c-.666016-.212891-1.624023-.319336-2.182617-.319336-3.912109,0-5.295898,3.246094-5.295898,5.748047v6.493164h-2.874023v-14.769531Z"/><path class="cls-2" d="m105.174962,36.276242l-7.078125-15.168945h3.166016c1.80957,3.779297,3.540039,7.557617,5.375977,11.602539h.052734c1.80957-3.964844,3.540039-7.796875,5.349609-11.602539h3.086914l-9.660156,20.624023h-2.874023l2.581055-5.455078Z"/><path class="cls-2" d="m257.566355,51.303977H0V0h257.566355C276.521274,0,291.9408,6.696544,291.9408,25.651463s-15.419526,25.652514-34.374445,25.652514ZM2.152344,49.151634h255.414011c17.767346,0,32.222101-5.731773,32.222101-23.50017s-14.454755-23.499119-32.222101-23.499119H2.152344v46.99929Zm272.788303-17.004254c-3.640488,0-6.602063-2.962626-6.602063-6.603114s2.961575-6.603114,6.602063-6.603114c3.64259,0,6.604164,2.962626,6.604164,6.603114s-2.961575,6.603114-6.604164,6.603114Zm0-11.053883c-2.452915,0-4.449719,1.996803-4.449719,4.45077s1.996803,4.45077,4.449719,4.45077c2.455017,0,4.451821-1.996803,4.451821-4.45077s-1.996803-4.45077-4.451821-4.45077Z"/><rect class="cls-2" x="260.233664" y="1.076172" width="2.152344" height="48.93724"/><rect class="cls-2" x="290.864628" y="24.575291" width="34.079823" height="2.152344"/></g></svg>