<?xml version="1.0" encoding="UTF-8"?><svg id="Layer_2" xmlns="http://www.w3.org/2000/svg" viewBox="0 0 324.944451 51.303977"><defs><style>.cls-1{opacity:.32;}.cls-1,.cls-2{stroke-width:0px;}.cls-2{fill:#fff;}</style></defs><g id="Layer_1-2"><path class="cls-1" d="m261.096719,1.976506H0v47.350966l261.096719-.091402c19.341277,0,28.691738-4.243344,28.691738-23.58462s-9.350461-23.674944-28.691738-23.674944Zm13.733913,30.219449c-3.674122,0-6.652555-2.978433-6.652555-6.652478,0-3.674122,2.978433-6.652555,6.652555-6.652555,3.674045,0,6.652478,2.978433,6.652478,6.652555,0,3.674045-2.978433,6.652478-6.652478,6.652478Z"/><path class="cls-2" d="m17.749135,31.453581c0-2.567383,2.640625-3.503906,5.568359-4.032227,2.640625-.456055,4.993164-.527344,4.993164-2.063477,0-1.224609-1.416992-2.329102-3.577148-2.329102-1.919922,0-3.408203.888672-3.959961,2.472656l-2.47168-.767578c.935547-2.665039,3.791992-3.720703,6.503906-3.720703,3.288086,0,6.144531,1.488281,6.144531,4.583984v4.96875c0,2.18457.192383,3.09668.503906,4.152344h-2.568359c-.287109-.744141-.383789-1.463867-.383789-2.280273h-.072266c-.935547,1.560547-2.855469,2.688477-5.496094,2.688477-2.736328,0-5.18457-1.200195-5.18457-3.672852Zm5.736328,1.75293c2.976562,0,4.825195-2.088867,4.825195-3.672852v-1.488281c-.960938.456055-1.728516.671875-3.577148.984375-1.583984.263672-4.175781.719727-4.175781,2.375977,0,1.12793,1.200195,1.800781,2.927734,1.800781Z"/><path class="cls-2" d="m36.924916,32.46237h-.047852v2.255859h-2.543945V15.517058h2.591797v8.232422c1.344727-1.848633,3.457031-2.736328,5.856445-2.736328,4.224609,0,7.201172,3.047852,7.201172,7.032227,0,4.320312-3.360352,7.081055-7.369141,7.081055-2.519531,0-4.55957-1.056641-5.688477-2.664062Zm5.208984.383789c2.976562,0,5.136719-2.016602,5.136719-4.776367,0-2.736328-2.18457-4.75293-5.136719-4.75293-2.904297,0-5.256836,1.96875-5.256836,4.776367,0,2.808594,2.375977,4.75293,5.256836,4.75293Z"/><path class="cls-2" d="m51.253041,28.09323c0-4.152344,3.336914-7.080078,8.088867-7.080078,4.704102,0,8.041016,2.927734,8.041016,7.080078s-3.336914,7.033203-8.041016,7.033203c-4.751953,0-8.088867-2.880859-8.088867-7.033203Zm8.088867,4.75293c3.144531,0,5.304688-1.967773,5.304688-4.75293,0-2.807617-2.160156-4.776367-5.304688-4.776367-3.167969,0-5.352539,1.96875-5.352539,4.776367,0,2.785156,2.18457,4.75293,5.352539,4.75293Z"/><path class="cls-2" d="m69.564564,29.74948v-8.352539h2.592773v7.489258c0,2.759766,1.824219,3.959961,3.864258,3.959961,2.832031,0,4.416016-2.040039,4.416016-4.104492v-7.344727h2.592773v9.168945c0,2.064453.167969,3,.527344,4.152344h-2.616211c-.239258-.816406-.383789-1.511719-.359375-2.064453h-.048828c-1.103516,1.65625-2.952148,2.472656-5.208008,2.472656-3.047852,0-5.760742-1.560547-5.760742-5.376953Z"/><path class="cls-2" d="m87.73351,30.613737v-7.008789h-3.168945v-2.208008h3.168945v-3.864258h2.568359v3.864258h4.727539v2.208008h-4.727539v6.192383c0,1.392578,0,3.121094,2.255859,3.121094.696289,0,1.583984-.192383,2.47168-.600586v2.232422c-.81543.383789-1.919922.576172-2.952148.576172-4.34375,0-4.34375-3.048828-4.34375-4.512695Z"/><path class="cls-2" d="m102.876088,29.74948v-8.352539h2.592773v7.489258c0,2.759766,1.824219,3.959961,3.864258,3.959961,2.832031,0,4.416016-2.040039,4.416016-4.104492v-7.344727h2.592773v9.168945c0,2.064453.167969,3,.527344,4.152344h-2.616211c-.239258-.816406-.383789-1.511719-.359375-2.064453h-.048828c-1.103516,1.65625-2.952148,2.472656-5.208008,2.472656-3.047852,0-5.760742-1.560547-5.760742-5.376953Z"/><path class="cls-2" d="m118.404408,31.382292l2.400391-.720703c.791992,1.583984,2.568359,2.448242,4.272461,2.448242,1.200195,0,3.144531-.456055,3.144531-1.895508,0-1.272461-1.632812-1.65625-3.000977-1.96875l-1.583984-.383789c-1.608398-.383789-4.488281-1.320312-4.488281-3.912109,0-2.544922,2.736328-3.936523,5.496094-3.936523,2.880859,0,5.088867,1.44043,5.785156,3.3125l-2.424805.767578c-.479492-1.080078-1.679688-2.064453-3.52832-2.064453-1.55957,0-2.711914.672852-2.711914,1.75293,0,1.34375,1.967773,1.847656,3.408203,2.183594l1.416016.335938c1.512695.335938,4.368164,1.008789,4.368164,3.648438,0,2.448242-2.375977,4.176758-5.856445,4.176758-3.288086,0-5.879883-1.488281-6.696289-3.744141Z"/><path class="cls-2" d="m257.566355,51.303977H0V0h257.566355C276.521274,0,291.9408,6.696544,291.9408,25.651463s-15.419526,25.652514-34.374445,25.652514ZM2.152344,49.151634h255.414011c17.767346,0,32.222101-5.731773,32.222101-23.50017s-14.454755-23.499119-32.222101-23.499119H2.152344v46.99929Zm272.788303-17.004254c-3.640488,0-6.602063-2.962626-6.602063-6.603114s2.961575-6.603114,6.602063-6.603114c3.64259,0,6.604164,2.962626,6.604164,6.603114s-2.961575,6.603114-6.604164,6.603114Zm0-11.053883c-2.452915,0-4.449719,1.996803-4.449719,4.45077s1.996803,4.45077,4.449719,4.45077c2.455017,0,4.451821-1.996803,4.451821-4.45077s-1.996803-4.45077-4.451821-4.45077Z"/><rect class="cls-2" x="260.233664" y="1.076172" width="2.152344" height="48.93724"/><rect class="cls-2" x="290.864628" y="24.575291" width="34.079823" height="2.152344"/></g></svg>