<?xml version="1.0" encoding="UTF-8"?><svg id="Layer_2" xmlns="http://www.w3.org/2000/svg" viewBox="0 0 324.944451 51.303977"><defs><style>.cls-1{opacity:.32;}.cls-1,.cls-2{stroke-width:0px;}.cls-2{fill:#fff;}</style></defs><g id="Layer_1-2"><path class="cls-1" d="m261.096719,1.977055H0v47.350966l261.096719-.091402c19.341277,0,28.691738-4.243344,28.691738-23.58462s-9.350461-23.674944-28.691738-23.674944Zm13.733913,30.219449c-3.674122,0-6.652555-2.978433-6.652555-6.652478,0-3.674122,2.978433-6.652555,6.652555-6.652555,3.674045,0,6.652478,2.978433,6.652478,6.652555,0,3.674045-2.978433,6.652478-6.652478,6.652478Z"/><path class="cls-2" d="m18.493275,36.51775l2.352539-.767578c.767578,1.631836,2.303711,2.543945,4.944336,2.543945,2.711914,0,4.992188-1.295898,4.992188-5.016602v-1.151367h-.072266c-1.199219,1.775391-3.335938,2.543945-5.591797,2.543945-4.488281,0-7.392578-3.072266-7.392578-6.816406,0-4.008789,3.21582-6.84082,7.344727-6.84082,2.47168,0,4.583984,1.032227,5.711914,2.688477h.047852v-2.304688h2.544922v11.80957c0,5.423828-3.384766,7.175781-7.561523,7.175781-3.143555,0-6.024414-.887695-7.320312-3.864258Zm7.056641-4.12793c2.928711,0,5.280273-2.016602,5.280273-4.583984,0-2.592773-2.351562-4.512695-5.280273-4.512695-2.952148,0-5.112305,1.992188-5.112305,4.512695,0,2.567383,2.18457,4.583984,5.112305,4.583984Z"/><path class="cls-2" d="m36.924916,21.396656h2.544922v2.424805h.120117c.791992-1.584961,2.664062-2.808594,4.919922-2.808594.551758,0,1.175781.072266,1.751953.263672v2.688477c-.599609-.192383-1.463867-.288086-1.967773-.288086-3.52832,0-4.776367,2.928711-4.776367,5.18457v5.856445h-2.592773v-13.321289Z"/><path class="cls-2" d="m46.04601,28.117359c0-4.12793,3.3125-7.104492,7.87207-7.104492,3.3125,0,7.416992,1.751953,7.416992,6.864258v.791992h-12.649414c.167969,2.664062,2.424805,4.272461,5.376953,4.272461,2.448242,0,4.224609-1.152344,5.064453-2.807617l2.375977.887695c-1.152344,2.472656-3.959961,4.104492-7.44043,4.104492-4.584961,0-8.016602-2.808594-8.016602-7.008789Zm12.625-1.248047c-.144531-2.760742-2.568359-3.744141-4.776367-3.744141-2.760742,0-4.632812,1.536133-5.088867,3.744141h9.865234Z"/><path class="cls-2" d="m62.701283,28.117359c0-4.12793,3.3125-7.104492,7.87207-7.104492,3.3125,0,7.416992,1.751953,7.416992,6.864258v.791992h-12.649414c.167969,2.664062,2.424805,4.272461,5.376953,4.272461,2.448242,0,4.224609-1.152344,5.064453-2.807617l2.375977.887695c-1.152344,2.472656-3.959961,4.104492-7.44043,4.104492-4.584961,0-8.016602-2.808594-8.016602-7.008789Zm12.625-1.248047c-.144531-2.760742-2.568359-3.744141-4.776367-3.744141-2.760742,0-4.632812,1.536133-5.088867,3.744141h9.865234Z"/><path class="cls-2" d="m80.5089,21.396656h2.543945v2.280273h.047852c1.224609-1.847656,3.240234-2.664062,5.424805-2.664062,2.856445,0,5.736328,1.488281,5.736328,5.328125v8.376953h-2.591797v-7.296875c0-2.591797-1.583984-4.104492-3.936523-4.104492-2.856445,0-4.632812,1.800781-4.632812,4.249023v7.152344h-2.591797v-13.321289Z"/><path class="cls-2" d="m95.484486,21.396656h2.879883l4.296875,10.128906h.072266c1.463867-3.383789,2.904297-6.744141,4.34375-10.128906h2.424805c1.488281,3.384766,2.975586,6.745117,4.44043,10.128906h.071289c1.392578-3.383789,2.808594-6.744141,4.201172-10.128906h2.879883l-5.616211,13.321289h-2.952148c-1.392578-3.167969-2.064453-4.560547-4.201172-9.865234h-.071289c-1.344727,3.264648-2.520508,5.976562-4.272461,9.865234h-2.856445l-5.640625-13.321289Z"/><path class="cls-2" d="m121.356556,31.453296c0-2.567383,2.640625-3.503906,5.568359-4.032227,2.640625-.456055,4.993164-.527344,4.993164-2.063477,0-1.224609-1.416992-2.329102-3.577148-2.329102-1.919922,0-3.408203.888672-3.959961,2.472656l-2.47168-.767578c.935547-2.665039,3.791992-3.720703,6.503906-3.720703,3.288086,0,6.144531,1.488281,6.144531,4.583984v4.96875c0,2.18457.192383,3.09668.503906,4.152344h-2.568359c-.287109-.744141-.383789-1.463867-.383789-2.280273h-.072266c-.935547,1.560547-2.855469,2.688477-5.496094,2.688477-2.736328,0-5.18457-1.200195-5.18457-3.672852Zm5.736328,1.75293c2.976562,0,4.825195-2.088867,4.825195-3.672852v-1.488281c-.960938.456055-1.728516.671875-3.577148.984375-1.583984.263672-4.175781.719727-4.175781,2.375977,0,1.12793,1.200195,1.800781,2.927734,1.800781Z"/><path class="cls-2" d="m136.428822,31.382007l2.400391-.720703c.791992,1.583984,2.568359,2.448242,4.272461,2.448242,1.200195,0,3.144531-.456055,3.144531-1.895508,0-1.272461-1.632812-1.65625-3.000977-1.96875l-1.583984-.383789c-1.608398-.383789-4.488281-1.320312-4.488281-3.912109,0-2.544922,2.736328-3.936523,5.496094-3.936523,2.880859,0,5.088867,1.44043,5.785156,3.3125l-2.424805.767578c-.479492-1.080078-1.679688-2.064453-3.52832-2.064453-1.55957,0-2.711914.672852-2.711914,1.75293,0,1.34375,1.967773,1.847656,3.408203,2.183594l1.416016.335938c1.512695.335938,4.368164,1.008789,4.368164,3.648438,0,2.448242-2.375977,4.176758-5.856445,4.176758-3.288086,0-5.879883-1.488281-6.696289-3.744141Z"/><path class="cls-2" d="m151.212025,15.516773h2.592773v8.160156h.072266c1.223633-1.87207,3.192383-2.664062,5.328125-2.664062,2.856445,0,5.760742,1.488281,5.760742,5.328125v8.376953h-2.592773v-7.296875c0-2.591797-1.583984-4.104492-3.936523-4.104492-2.855469,0-4.631836,1.800781-4.631836,4.249023v7.152344h-2.592773V15.516773Z"/><path class="cls-2" d="m174.060658,36.51775l2.351562-.767578c.768555,1.631836,2.304688,2.543945,4.944336,2.543945,2.712891,0,4.993164-1.295898,4.993164-5.016602v-1.151367h-.072266c-1.200195,1.775391-3.335938,2.543945-5.592773,2.543945-4.488281,0-7.392578-3.072266-7.392578-6.816406,0-4.008789,3.216797-6.84082,7.344727-6.84082,2.472656,0,4.583984,1.032227,5.712891,2.688477h.047852v-2.304688h2.543945v11.80957c0,5.423828-3.383789,7.175781-7.560547,7.175781-3.144531,0-6.024414-.887695-7.320312-3.864258Zm7.056641-4.12793c2.927734,0,5.280273-2.016602,5.280273-4.583984,0-2.592773-2.352539-4.512695-5.280273-4.512695-2.952148,0-5.113281,1.992188-5.113281,4.512695,0,2.567383,2.18457,4.583984,5.113281,4.583984Z"/><path class="cls-2" d="m192.276478,29.749195v-8.352539h2.591797v7.489258c0,2.759766,1.824219,3.959961,3.864258,3.959961,2.833008,0,4.416992-2.040039,4.416992-4.104492v-7.344727h2.591797v9.168945c0,2.064453.167969,3,.52832,4.152344h-2.616211c-.240234-.816406-.383789-1.511719-.360352-2.064453h-.047852c-1.104492,1.65625-2.952148,2.472656-5.208008,2.472656-3.048828,0-5.760742-1.560547-5.760742-5.376953Z"/><path class="cls-2" d="m210.635853,15.276539c1.032227,0,1.847656.767578,1.847656,1.65625,0,.983398-.81543,1.727539-1.847656,1.727539-1.080078,0-1.896484-.744141-1.896484-1.727539,0-.888672.816406-1.65625,1.896484-1.65625Zm-1.320312,6.120117h2.591797v13.321289h-2.591797v-13.321289Z"/><path class="cls-2" d="m214.306752,28.069507c0-4.320312,3.288086-7.056641,7.368164-7.056641,2.472656,0,4.489258,1.007812,5.617188,2.639648h.071289v-8.135742h2.592773v15.048828c0,2.160156.192383,3.120117.503906,4.152344h-2.568359c-.288086-.887695-.383789-1.463867-.383789-2.208008h-.072266c-1.223633,1.776367-3.408203,2.616211-5.760742,2.616211-4.320312,0-7.368164-2.952148-7.368164-7.056641Zm7.824219,4.751953c2.928711,0,5.28125-1.967773,5.28125-4.776367,0-2.807617-2.352539-4.751953-5.28125-4.751953-2.952148,0-5.112305,2.015625-5.112305,4.776367,0,2.736328,2.18457,4.751953,5.112305,4.751953Z"/><path class="cls-2" d="m232.354603,28.117359c0-4.12793,3.3125-7.104492,7.873047-7.104492,3.3125,0,7.416992,1.751953,7.416992,6.864258v.791992h-12.649414c.167969,2.664062,2.423828,4.272461,5.376953,4.272461,2.448242,0,4.223633-1.152344,5.064453-2.807617l2.375977.887695c-1.152344,2.472656-3.960938,4.104492-7.44043,4.104492-4.584961,0-8.017578-2.808594-8.017578-7.008789Zm12.625977-1.248047c-.144531-2.760742-2.568359-3.744141-4.776367-3.744141-2.760742,0-4.632812,1.536133-5.088867,3.744141h9.865234Z"/><path class="cls-2" d="m257.566355,51.303977H0V0h257.566355C276.521274,0,291.9408,6.696544,291.9408,25.651463s-15.419526,25.652514-34.374445,25.652514ZM2.152344,49.151634h255.414011c17.767346,0,32.222101-5.731773,32.222101-23.50017s-14.454755-23.499119-32.222101-23.499119H2.152344v46.99929Zm272.788303-17.004254c-3.640488,0-6.602063-2.962626-6.602063-6.603114s2.961575-6.603114,6.602063-6.603114c3.64259,0,6.604164,2.962626,6.604164,6.603114s-2.961575,6.603114-6.604164,6.603114Zm0-11.053883c-2.452915,0-4.449719,1.996803-4.449719,4.45077s1.996803,4.45077,4.449719,4.45077c2.455017,0,4.451821-1.996803,4.451821-4.45077s-1.996803-4.45077-4.451821-4.45077Z"/><rect class="cls-2" x="260.233664" y="1.076172" width="2.152344" height="48.93724"/><rect class="cls-2" x="290.864628" y="24.575291" width="34.079823" height="2.152344"/></g></svg>