<?xml version="1.0" encoding="UTF-8"?><svg id="Layer_2" xmlns="http://www.w3.org/2000/svg" viewBox="0 0 324.944451 51.303977"><defs><style>.cls-1{opacity:.32;}.cls-1,.cls-2{stroke-width:0px;}.cls-2{fill:#fff;}</style></defs><g id="Layer_1-2"><path class="cls-1" d="m261.096719,1.975956H0v47.350966l261.096719-.091402c19.341277,0,28.691738-4.243344,28.691738-23.58462s-9.350461-23.674944-28.691738-23.674944Zm13.733913,30.219449c-3.674122,0-6.652555-2.978433-6.652555-6.652478,0-3.674122,2.978433-6.652555,6.652555-6.652555,3.674045,0,6.652478,2.978433,6.652478,6.652555,0,3.674045-2.978433,6.652478-6.652478,6.652478Z"/><path class="cls-2" d="m17.749135,28.09266c0-4.152344,3.336914-7.080078,8.088867-7.080078,4.704102,0,8.041016,2.927734,8.041016,7.080078s-3.336914,7.033203-8.041016,7.033203c-4.751953,0-8.088867-2.880859-8.088867-7.033203Zm8.088867,4.75293c3.144531,0,5.304688-1.967773,5.304688-4.75293,0-2.807617-2.160156-4.776367-5.304688-4.776367-3.167969,0-5.352539,1.96875-5.352539,4.776367,0,2.785156,2.18457,4.75293,5.352539,4.75293Z"/><path class="cls-2" d="m36.060658,29.74891v-8.352539h2.592773v7.489258c0,2.759766,1.824219,3.959961,3.864258,3.959961,2.832031,0,4.416016-2.040039,4.416016-4.104492v-7.344727h2.592773v9.168945c0,2.064453.167969,3,.527344,4.152344h-2.616211c-.239258-.816406-.383789-1.511719-.359375-2.064453h-.048828c-1.103516,1.65625-2.952148,2.472656-5.208008,2.472656-3.047852,0-5.760742-1.560547-5.760742-5.376953Z"/><path class="cls-2" d="m53.100697,21.396371h2.544922v2.424805h.120117c.791992-1.584961,2.664062-2.808594,4.919922-2.808594.551758,0,1.175781.072266,1.751953.263672v2.688477c-.599609-.192383-1.463867-.288086-1.967773-.288086-3.52832,0-4.776367,2.928711-4.776367,5.18457v5.856445h-2.592773v-13.321289Z"/><path class="cls-2" d="m69.396596,21.396371h2.544922v2.280273h.047852c1.200195-1.824219,3.264648-2.664062,5.328125-2.664062,2.040039,0,4.296875.816406,5.112305,2.879883h.048828c1.536133-2.183594,3.624023-2.879883,5.591797-2.879883,2.712891,0,5.665039,1.55957,5.665039,5.328125v8.376953h-2.592773v-7.296875c0-2.616211-1.55957-4.104492-3.791992-4.104492-2.688477,0-4.488281,1.800781-4.488281,4.249023v7.152344h-2.592773v-7.296875c0-2.616211-1.55957-4.104492-3.767578-4.104492-2.712891,0-4.512695,1.800781-4.512695,4.249023v7.152344h-2.592773v-13.321289Z"/><path class="cls-2" d="m98.387806,15.276254c1.032227,0,1.848633.767578,1.848633,1.65625,0,.983398-.816406,1.727539-1.848633,1.727539-1.080078,0-1.895508-.744141-1.895508-1.727539,0-.888672.81543-1.65625,1.895508-1.65625Zm-1.320312,6.120117h2.592773v13.321289h-2.592773v-13.321289Z"/><path class="cls-2" d="m101.700306,31.381723l2.400391-.720703c.791992,1.583984,2.568359,2.448242,4.272461,2.448242,1.200195,0,3.144531-.456055,3.144531-1.895508,0-1.272461-1.632812-1.65625-3.000977-1.96875l-1.583984-.383789c-1.608398-.383789-4.488281-1.320312-4.488281-3.912109,0-2.544922,2.736328-3.936523,5.496094-3.936523,2.880859,0,5.088867,1.44043,5.785156,3.3125l-2.424805.767578c-.479492-1.080078-1.679688-2.064453-3.52832-2.064453-1.55957,0-2.711914.672852-2.711914,1.75293,0,1.34375,1.967773,1.847656,3.408203,2.183594l1.416016.335938c1.512695.335938,4.368164,1.008789,4.368164,3.648438,0,2.448242-2.375977,4.176758-5.856445,4.176758-3.288086,0-5.879883-1.488281-6.696289-3.744141Z"/><path class="cls-2" d="m114.972767,31.381723l2.399414-.720703c.791992,1.583984,2.568359,2.448242,4.272461,2.448242,1.200195,0,3.144531-.456055,3.144531-1.895508,0-1.272461-1.631836-1.65625-3-1.96875l-1.583984-.383789c-1.608398-.383789-4.489258-1.320312-4.489258-3.912109,0-2.544922,2.736328-3.936523,5.49707-3.936523,2.879883,0,5.087891,1.44043,5.78418,3.3125l-2.423828.767578c-.480469-1.080078-1.680664-2.064453-3.52832-2.064453-1.560547,0-2.712891.672852-2.712891,1.75293,0,1.34375,1.96875,1.847656,3.40918,2.183594l1.416016.335938c1.511719.335938,4.368164,1.008789,4.368164,3.648438,0,2.448242-2.375977,4.176758-5.856445,4.176758-3.288086,0-5.880859-1.488281-6.696289-3.744141Z"/><path class="cls-2" d="m131.076283,15.276254c1.032227,0,1.847656.767578,1.847656,1.65625,0,.983398-.81543,1.727539-1.847656,1.727539-1.080078,0-1.896484-.744141-1.896484-1.727539,0-.888672.816406-1.65625,1.896484-1.65625Zm-1.320312,6.120117h2.591797v13.321289h-2.591797v-13.321289Z"/><path class="cls-2" d="m134.748158,28.09266c0-4.152344,3.335938-7.080078,8.088867-7.080078,4.704102,0,8.040039,2.927734,8.040039,7.080078s-3.335938,7.033203-8.040039,7.033203c-4.75293,0-8.088867-2.880859-8.088867-7.033203Zm8.088867,4.75293c3.143555,0,5.303711-1.967773,5.303711-4.75293,0-2.807617-2.160156-4.776367-5.303711-4.776367-3.168945,0-5.352539,1.96875-5.352539,4.776367,0,2.785156,2.183594,4.75293,5.352539,4.75293Z"/><path class="cls-2" d="m153.274525,21.396371h2.544922v2.280273h.047852c1.223633-1.847656,3.240234-2.664062,5.424805-2.664062,2.855469,0,5.736328,1.488281,5.736328,5.328125v8.376953h-2.592773v-7.296875c0-2.591797-1.583984-4.104492-3.936523-4.104492-2.855469,0-4.631836,1.800781-4.631836,4.249023v7.152344h-2.592773v-13.321289Z"/><path class="cls-2" d="m257.566355,51.303977H0V0h257.566355c18.954919,0,34.374445,6.696544,34.374445,25.651463s-15.419526,25.652514-34.374445,25.652514ZM2.152344,49.151634h255.414011c17.767346,0,32.222101-5.731773,32.222101-23.50017s-14.454755-23.499119-32.222101-23.499119H2.152344v46.99929Zm272.788303-17.004254c-3.640488,0-6.602063-2.962626-6.602063-6.603114s2.961575-6.603114,6.602063-6.603114c3.64259,0,6.604164,2.962626,6.604164,6.603114s-2.961575,6.603114-6.604164,6.603114Zm0-11.053883c-2.452915,0-4.449719,1.996803-4.449719,4.45077s1.996803,4.45077,4.449719,4.45077c2.455017,0,4.451821-1.996803,4.451821-4.45077s-1.996803-4.45077-4.451821-4.45077Z"/><rect class="cls-2" x="260.233664" y="1.076172" width="2.152344" height="48.93724"/><rect class="cls-2" x="290.864628" y="24.575291" width="34.079823" height="2.152344"/></g></svg>