<?xml version="1.0" encoding="UTF-8"?><svg id="Layer_2" xmlns="http://www.w3.org/2000/svg" viewBox="0 0 324.944451 51.303977"><defs><style>.cls-1{opacity:.32;}.cls-1,.cls-2{stroke-width:0px;}.cls-2{fill:#fff;}</style></defs><g id="Layer_1-2"><path class="cls-1" d="m261.096719,1.976506H0v47.350966l261.096719-.091402c19.341277,0,28.691738-4.243344,28.691738-23.58462s-9.350461-23.674944-28.691738-23.674944Zm13.733913,30.219449c-3.674122,0-6.652555-2.978433-6.652555-6.652478,0-3.674122,2.978433-6.652555,6.652555-6.652555,3.674045,0,6.652478,2.978433,6.652478,6.652555,0,3.674045-2.978433,6.652478-6.652478,6.652478Z"/><path class="cls-2" d="m18.901478,21.396249h2.543945v2.424805h.120117c.791992-1.584961,2.664062-2.808594,4.920898-2.808594.551758,0,1.175781.072266,1.751953.263672v2.688477c-.600586-.192383-1.463867-.288086-1.96875-.288086-3.52832,0-4.776367,2.928711-4.776367,5.18457v5.856445h-2.591797v-13.321289Z"/><path class="cls-2" d="m28.021596,28.116952c0-4.12793,3.3125-7.104492,7.87207-7.104492,3.3125,0,7.416992,1.751953,7.416992,6.864258v.791992h-12.649414c.167969,2.664062,2.424805,4.272461,5.376953,4.272461,2.448242,0,4.224609-1.152344,5.064453-2.807617l2.375977.887695c-1.152344,2.472656-3.959961,4.104492-7.44043,4.104492-4.584961,0-8.016602-2.808594-8.016602-7.008789Zm12.625-1.248047c-.144531-2.760742-2.568359-3.744141-4.776367-3.744141-2.760742,0-4.632812,1.536133-5.088867,3.744141h9.865234Z"/><path class="cls-2" d="m44.317494,31.3816l2.400391-.720703c.791992,1.583984,2.568359,2.448242,4.272461,2.448242,1.200195,0,3.144531-.456055,3.144531-1.895508,0-1.272461-1.632812-1.65625-3.000977-1.96875l-1.583984-.383789c-1.608398-.383789-4.488281-1.320312-4.488281-3.912109,0-2.544922,2.736328-3.936523,5.496094-3.936523,2.880859,0,5.088867,1.44043,5.785156,3.3125l-2.424805.767578c-.479492-1.080078-1.679688-2.064453-3.52832-2.064453-1.55957,0-2.711914.672852-2.711914,1.75293,0,1.34375,1.967773,1.847656,3.408203,2.183594l1.416016.335938c1.512695.335938,4.368164,1.008789,4.368164,3.648438,0,2.448242-2.375977,4.176758-5.856445,4.176758-3.288086,0-5.879883-1.488281-6.696289-3.744141Z"/><path class="cls-2" d="m57.94933,28.092538c0-4.152344,3.335938-7.080078,8.088867-7.080078,4.704102,0,8.040039,2.927734,8.040039,7.080078s-3.335938,7.033203-8.040039,7.033203c-4.75293,0-8.088867-2.880859-8.088867-7.033203Zm8.088867,4.75293c3.143555,0,5.303711-1.967773,5.303711-4.75293,0-2.807617-2.160156-4.776367-5.303711-4.776367-3.168945,0-5.352539,1.96875-5.352539,4.776367,0,2.785156,2.183594,4.75293,5.352539,4.75293Z"/><path class="cls-2" d="m76.260853,29.748788v-8.352539h2.592773v7.489258c0,2.759766,1.824219,3.959961,3.864258,3.959961,2.832031,0,4.416016-2.040039,4.416016-4.104492v-7.344727h2.592773v9.168945c0,2.064453.167969,3,.527344,4.152344h-2.616211c-.239258-.816406-.383789-1.511719-.359375-2.064453h-.048828c-1.103516,1.65625-2.952148,2.472656-5.208008,2.472656-3.047852,0-5.760742-1.560547-5.760742-5.376953Z"/><path class="cls-2" d="m93.300892,21.396249h2.543945v2.424805h.120117c.791992-1.584961,2.664062-2.808594,4.920898-2.808594.551758,0,1.175781.072266,1.751953.263672v2.688477c-.600586-.192383-1.463867-.288086-1.96875-.288086-3.52832,0-4.776367,2.928711-4.776367,5.18457v5.856445h-2.591797v-13.321289Z"/><path class="cls-2" d="m102.42101,28.092538c0-4.271484,3.383789-7.080078,8.016602-7.080078,3.024414,0,5.832031,1.295898,7.056641,3.959961l-2.448242.912109c-.744141-1.704102-2.543945-2.568359-4.680664-2.568359-3.167969,0-5.232422,2.041016-5.232422,4.75293,0,2.879883,2.304688,4.776367,5.400391,4.776367,2.520508,0,4.296875-1.175781,5.160156-2.976562l2.400391.888672c-1.223633,2.78418-4.12793,4.368164-7.632812,4.368164-4.631836,0-8.040039-2.760742-8.040039-7.033203Z"/><path class="cls-2" d="m118.76476,28.116952c0-4.12793,3.3125-7.104492,7.873047-7.104492,3.3125,0,7.416016,1.751953,7.416016,6.864258v.791992h-12.648438c.167969,2.664062,2.423828,4.272461,5.375977,4.272461,2.448242,0,4.224609-1.152344,5.064453-2.807617l2.376953.887695c-1.152344,2.472656-3.960938,4.104492-7.441406,4.104492-4.583984,0-8.016602-2.808594-8.016602-7.008789Zm12.625-1.248047c-.143555-2.760742-2.568359-3.744141-4.776367-3.744141-2.759766,0-4.631836,1.536133-5.087891,3.744141h9.864258Z"/><path class="cls-2" d="m135.060658,31.3816l2.399414-.720703c.791992,1.583984,2.568359,2.448242,4.272461,2.448242,1.200195,0,3.144531-.456055,3.144531-1.895508,0-1.272461-1.631836-1.65625-3-1.96875l-1.583984-.383789c-1.608398-.383789-4.489258-1.320312-4.489258-3.912109,0-2.544922,2.736328-3.936523,5.49707-3.936523,2.879883,0,5.087891,1.44043,5.78418,3.3125l-2.423828.767578c-.480469-1.080078-1.680664-2.064453-3.52832-2.064453-1.560547,0-2.712891.672852-2.712891,1.75293,0,1.34375,1.96875,1.847656,3.40918,2.183594l1.416016.335938c1.511719.335938,4.368164,1.008789,4.368164,3.648438,0,2.448242-2.375977,4.176758-5.856445,4.176758-3.288086,0-5.880859-1.488281-6.696289-3.744141Z"/><path class="cls-2" d="m257.566355,51.303977H0V0h257.566355c18.954919,0,34.374445,6.696544,34.374445,25.651463s-15.419526,25.652514-34.374445,25.652514ZM2.152344,49.151634h255.414011c17.767346,0,32.222101-5.731773,32.222101-23.50017s-14.454755-23.499119-32.222101-23.499119H2.152344v46.99929Zm272.788303-17.004254c-3.640488,0-6.602063-2.962626-6.602063-6.603114s2.961575-6.603114,6.602063-6.603114c3.64259,0,6.604164,2.962626,6.604164,6.603114s-2.961575,6.603114-6.604164,6.603114Zm0-11.053883c-2.452915,0-4.449719,1.996803-4.449719,4.45077s1.996803,4.45077,4.449719,4.45077c2.455017,0,4.451821-1.996803,4.451821-4.45077s-1.996803-4.45077-4.451821-4.45077Z"/><rect class="cls-2" x="260.233664" y="1.076172" width="2.152344" height="48.93724"/><rect class="cls-2" x="290.864628" y="24.575291" width="34.079823" height="2.152344"/></g></svg>